<svg xmlns="http://www.w3.org/2000/svg" width="809" height="447" viewBox="0 0 809 447">
    <g fill="none" fill-rule="evenodd" stroke="#9B9B9B" opacity=".4">
        <path stroke-width="3.233" d="M305.152 54.719h98.225c2.818 0 5.123 2.255 5.123 5.01s-2.305 5.009-5.123 5.009h-98.225c-2.818 0-5.123-2.254-5.123-5.01 0-2.754 2.305-5.009 5.123-5.009z" opacity=".113"/>
        <path stroke-linecap="round" stroke-linejoin="round" stroke-width="3.241" d="M354.265 47.783H310.03c0-24.262 19.804-43.93 44.235-43.93 24.43 0 44.235 19.668 44.235 43.93h-44.235z" opacity=".113"/>
        <path stroke-linecap="round" stroke-linejoin="round" stroke-width="3.246" d="M310.03 70.903h88.47c0 8.478-6.848 15.414-15.216 15.414h-58.039c-8.368 0-15.215-6.936-15.215-15.414z" opacity=".113"/>
        <path stroke-linecap="round" stroke-linejoin="round" stroke-width="3.241" d="M248.87 393.052h-44.235c0-24.262 19.804-43.93 44.235-43.93 24.43 0 44.235 19.668 44.235 43.93H248.87z" opacity=".113"/>
        <path stroke-width="3.245" d="M533.128 203.711v-99.146c0-4.95 3.982-9 8.847-9 4.866 0 8.847 4.05 8.847 9v99.146c0 4.95-3.98 9-8.847 9-4.865 0-8.847-4.05-8.847-9z" opacity=".113"/>
        <path stroke-linecap="round" stroke-linejoin="round" stroke-width="3.24" d="M527.743 199.609v-90.171h-.001c-7.616 0-13.847 6.15-13.847 13.667v62.837c0 7.516 6.23 13.667 13.847 13.667z" opacity=".113"/>
        <path stroke-width="3.245" d="M23.08 421.817V322.67c0-4.95 3.98-9 8.846-9s8.847 4.05 8.847 9v99.147c0 4.948-3.981 8.999-8.847 8.999s-8.847-4.05-8.847-9z" opacity=".113"/>
        <path stroke-linecap="round" stroke-linejoin="round" stroke-width="3.24" d="M46.158 416.943v-90.17c7.616 0 13.848 6.15 13.848 13.667v62.836c0 7.518-6.232 13.667-13.848 13.667zM16.925 416.943v-90.17c-7.616 0-13.848 6.15-13.848 13.667v62.836c0 7.518 6.232 13.667 13.848 13.667z" opacity=".113"/>
        <path stroke-width="3.241" d="M651.204 382.98l-101.11-51.208a3.487 3.487 0 0 0-4.106.715 61.99 61.99 0 0 0-.636.638c-26.78 27.316-26.569 79.81.721 106.706a3.487 3.487 0 0 0 4.02.63l101.13-51.218c2.586-1.309 2.53-4.999-.02-6.263z" opacity=".113"/>
        <path stroke-width="3.242" d="M572.362 366.849c0-5.534-4.478-10.02-10-10.02-5.524 0-10.002 4.486-10.002 10.02 0 5.533 4.478 10.018 10.001 10.018s10.001-4.485 10.001-10.018z" opacity=".113"/>
        <path stroke-width="3.241" d="M200.84 159.906l51.117-101.293a3.502 3.502 0 0 0-.714-4.112c-.21-.214-.423-.426-.637-.636-27.266-26.83-79.665-26.618-106.513.72a3.502 3.502 0 0 0-.629 4.028l51.126 101.314c1.305 2.59 4.99 2.532 6.25-.021z" opacity=".113"/>
        <path stroke-width="3.242" d="M216.944 81.693c5.523 0 10-4.485 10-10.019 0-5.533-4.477-10.019-10-10.019s-10.001 4.486-10.001 10.02c0 5.533 4.478 10.018 10 10.018zM180.017 95.566c5.524 0 10.001-4.486 10.001-10.02 0-5.532-4.477-10.018-10-10.018-5.524 0-10.002 4.486-10.002 10.019s4.478 10.019 10.001 10.019zM196.942 129.476c5.524 0 10-4.486 10-10.02 0-5.533-4.476-10.018-10-10.018-5.523 0-10.001 4.485-10.001 10.019 0 5.533 4.478 10.019 10 10.019z" opacity=".113"/>
        <path stroke-width="3.241" d="M142.374 317.151l51.116 101.292a3.504 3.504 0 0 1-.713 4.113c-.21.214-.424.426-.637.637-27.267 26.83-79.666 26.617-106.514-.722a3.503 3.503 0 0 1-.63-4.028l51.127-101.313c1.306-2.59 4.99-2.532 6.25.021z" opacity=".113"/>
        <path stroke-width="3.242" d="M138.475 348.352c5.523 0 10 4.485 10 10.018 0 5.534-4.477 10.02-10 10.02s-10.001-4.486-10.001-10.02c0-5.533 4.478-10.018 10-10.018z" opacity=".113"/>
        <path stroke-linecap="round" stroke-linejoin="round" stroke-width="3.241" d="M556.207 247.391v10.514c0 15.1-37.696 16.45-37.696 0v-10.514c0 5.173 8.438 9.367 18.848 9.367 10.409 0 18.848-4.194 18.848-9.367z" opacity=".113"/>
        <path stroke-width="3.241" d="M537.36 238.143c10.408 0 18.847 4.14 18.847 9.249 0 5.107-8.439 9.248-18.848 9.248-10.41 0-18.848-4.14-18.848-9.248 0-5.109 8.439-9.249 18.848-9.249z" opacity=".113"/>
        <path stroke-width="3.241" d="M537.359 243.538c5.311 0 9.616 1.898 9.616 4.24 0 2.34-4.305 4.238-9.616 4.238s-9.616-1.898-9.616-4.239 4.305-4.24 9.616-4.24z" opacity=".113"/>
        <path stroke-linecap="round" stroke-linejoin="round" stroke-width="3.241" d="M290.028 16.184v10.514c0 15.1-37.696 16.45-37.696 0V16.184c0 5.173 8.438 9.367 18.848 9.367 10.409 0 18.848-4.194 18.848-9.367z" opacity=".113"/>
        <path stroke-width="3.241" d="M271.18 6.936c10.409 0 18.848 4.14 18.848 9.249 0 5.108-8.44 9.248-18.848 9.248-10.41 0-18.848-4.14-18.848-9.248 0-5.109 8.439-9.249 18.848-9.249z" opacity=".113"/>
        <path stroke-width="3.241" d="M271.18 12.331c5.31 0 9.616 1.898 9.616 4.239 0 2.34-4.305 4.239-9.616 4.239s-9.617-1.898-9.617-4.24c0-2.34 4.306-4.238 9.617-4.238z" opacity=".113"/>
        <path stroke-linecap="round" stroke-linejoin="round" stroke-width="3.241" d="M81.546 188.819v10.514c0 15.099-37.696 16.45-37.696 0v-10.514c0 5.173 8.439 9.366 18.848 9.366 10.41 0 18.848-4.193 18.848-9.366z" opacity=".113"/>
        <path stroke-width="3.241" d="M62.698 179.57c10.409 0 18.848 4.14 18.848 9.25 0 5.107-8.44 9.247-18.848 9.247-10.409 0-18.848-4.14-18.848-9.248s8.439-9.248 18.848-9.248z" opacity=".113"/>
        <path stroke-width="3.241" d="M62.698 184.195c5.311 0 9.617 1.898 9.617 4.239 0 2.34-4.306 4.238-9.617 4.238-5.31 0-9.616-1.897-9.616-4.238s4.305-4.24 9.616-4.24z" opacity=".113"/>
        <path stroke-linecap="round" stroke-linejoin="round" stroke-width="3.241" d="M111.55 307.505v10.514c0 15.099-37.697 16.45-37.697 0v-10.514c0 5.174 8.439 9.367 18.848 9.367 10.41 0 18.848-4.193 18.848-9.367z" opacity=".113"/>
        <path stroke-width="3.241" d="M92.701 298.257c10.41 0 18.848 4.14 18.848 9.248s-8.439 9.248-18.848 9.248c-10.408 0-18.848-4.14-18.848-9.248 0-5.107 8.44-9.248 18.848-9.248z" opacity=".113"/>
        <path stroke-width="3.241" d="M92.701 302.881c5.311 0 9.616 1.898 9.616 4.24 0 2.34-4.305 4.238-9.616 4.238s-9.616-1.898-9.616-4.239c0-2.34 4.305-4.239 9.616-4.239z" opacity=".113"/>
        <path stroke-linecap="round" stroke-linejoin="round" stroke-width="3.241" d="M346.187 373.014v10.513c0 15.1-37.696 16.45-37.696 0v-10.513c0 5.173 8.438 9.367 18.848 9.367 10.409 0 18.848-4.194 18.848-9.367z" opacity=".113"/>
        <path stroke-width="3.241" d="M327.339 363.766c10.408 0 18.848 4.14 18.848 9.248 0 5.107-8.44 9.248-18.848 9.248-10.41 0-18.848-4.14-18.848-9.248s8.439-9.248 18.848-9.248z" opacity=".113"/>
        <path stroke-width="3.241" d="M327.339 369.16c5.311 0 9.616 1.898 9.616 4.24 0 2.34-4.305 4.238-9.616 4.238s-9.616-1.898-9.616-4.239c0-2.34 4.305-4.239 9.616-4.239z" opacity=".113"/>
        <path stroke-linecap="round" stroke-linejoin="round" stroke-width="3.079" d="M214.251 255.098h-81.93c0 9.767 1.684 19.138 4.775 27.834l1.034-.431c2.045-.854 4.391.125 5.238 2.186.847 2.06-.124 4.424-2.17 5.277l-1.03.43c3.472 7.387 8 14.17 13.388 20.155l.775-.78a3.987 3.987 0 0 1 5.668 0 4.064 4.064 0 0 1 0 5.714l-.774.779a82.007 82.007 0 0 0 20.002 13.491l.426-1.037c.847-2.061 3.193-3.04 5.238-2.187 2.044.854 3.016 3.217 2.17 5.278l-.43 1.042a81.074 81.074 0 0 0 23.612 4.713v-1.109c0-2.23 1.795-4.039 4.008-4.039 2.214 0 4.01 1.809 4.01 4.04v1.108a81.069 81.069 0 0 0 23.61-4.713l-.428-1.042c-.847-2.06.124-4.424 2.17-5.278 2.045-.854 4.39.126 5.237 2.187l.427 1.039a81.984 81.984 0 0 0 20.003-13.491l-.776-.782a4.063 4.063 0 0 1 0-5.713 3.988 3.988 0 0 1 5.67 0l.775.782a82.715 82.715 0 0 0 13.388-20.156l-1.032-.43c-2.045-.854-3.016-3.218-2.169-5.279a3.998 3.998 0 0 1 5.237-2.186l1.035.432c3.09-8.696 4.774-18.067 4.774-27.834h-81.93zM406.962 177.644v82.078c9.75 0 19.104-1.687 27.783-4.784l-.43-1.036a4.01 4.01 0 0 1 2.182-5.247 4.037 4.037 0 0 1 5.268 2.174l.429 1.031a82.574 82.574 0 0 0 20.12-13.412l-.78-.775a4.005 4.005 0 0 1 0-5.68 4.045 4.045 0 0 1 5.703 0l.779.775a82.172 82.172 0 0 0 13.467-20.036l-1.036-.427a4.01 4.01 0 0 1-2.183-5.247 4.039 4.039 0 0 1 5.269-2.174l1.04.43a81.475 81.475 0 0 0 4.704-23.654h-1.106a4.025 4.025 0 0 1-4.032-4.016 4.024 4.024 0 0 1 4.032-4.016h1.106a81.465 81.465 0 0 0-4.704-23.654l-1.04.429a4.038 4.038 0 0 1-5.269-2.173 4.01 4.01 0 0 1 2.182-5.247l1.038-.428a82.164 82.164 0 0 0-13.467-20.038l-.78.777a4.045 4.045 0 0 1-5.703 0 4.005 4.005 0 0 1 0-5.68l.78-.776a82.544 82.544 0 0 0-20.12-13.412l-.43 1.033a4.037 4.037 0 0 1-5.267 2.173 4.01 4.01 0 0 1-2.183-5.247l.431-1.036a82.56 82.56 0 0 0-27.783-4.783v82.078z" opacity=".113"/>
        <path stroke-linecap="round" stroke-linejoin="round" stroke-width="3.242" d="M106.164 211.169h124.627c0 8.768-7.036 11.56-15.632 11.56h-93.362c-8.598 0-15.633-2.79-15.633-11.56zM106.164 187.278h124.627c0-8.373-23.867-18.789-39.61-9.528-7.875-6.82-37.533-6.82-45.41 0-15.742-9.26-39.607 1.159-39.607 9.528z" opacity=".113"/>
        <path stroke-linecap="round" stroke-linejoin="round" stroke-width="3.241" d="M106.164 199.609c0-3.405 2.755-6.166 6.154-6.166 3.4 0 6.155 2.761 6.155 6.166M131.551 199.609c0-3.405 2.755-6.166 6.154-6.166s6.155 2.761 6.155 6.166M156.169 199.609c0-3.405 2.756-6.166 6.154-6.166 3.4 0 6.155 2.761 6.155 6.166M181.556 199.609c0-3.405 2.755-6.166 6.154-6.166s6.155 2.761 6.155 6.166M206.173 199.609c0-3.405 2.756-6.166 6.155-6.166 3.398 0 6.154 2.761 6.154 6.166M119.242 199.609a6.16 6.16 0 0 0 6.155 6.165 6.16 6.16 0 0 0 6.154-6.165M143.86 199.609a6.16 6.16 0 0 0 6.155 6.165c3.398 0 6.154-2.76 6.154-6.165M168.478 199.609a6.16 6.16 0 0 0 6.154 6.165 6.16 6.16 0 0 0 6.154-6.165M193.865 199.609a6.16 6.16 0 0 0 6.154 6.165c3.399 0 6.154-2.76 6.154-6.165M218.482 199.609a6.16 6.16 0 0 0 6.155 6.165 6.16 6.16 0 0 0 6.154-6.165" opacity=".113"/>
        <path stroke-linecap="round" stroke-linejoin="round" stroke-width="3.242" d="M359.265 371.472h124.627c0-8.373-23.867-18.789-39.61-9.527-7.875-6.821-37.533-6.821-45.408 0-15.744-9.261-39.609 1.158-39.609 9.527z" opacity=".113"/>
        <path stroke-linecap="round" stroke-linejoin="round" stroke-width="3.241" d="M359.265 383.033c0-3.405 2.755-6.166 6.154-6.166 3.4 0 6.155 2.76 6.155 6.166M384.652 383.033c0-3.405 2.755-6.166 6.154-6.166s6.155 2.76 6.155 6.166M409.27 383.033a6.16 6.16 0 0 1 6.155-6.166c3.399 0 6.154 2.76 6.154 6.166M434.657 383.033a6.16 6.16 0 0 1 6.155-6.166c3.398 0 6.154 2.76 6.154 6.166M459.275 383.033a6.16 6.16 0 0 1 6.154-6.166c3.4 0 6.154 2.76 6.154 6.166" opacity=".113"/>
        <path stroke-width="3.242" d="M433.118 305.964h46.602c1.026 0 1.864.805 1.864 1.788v1.047c0 .984-.838 1.789-1.864 1.789h-46.602v-4.624zM348.495 322.765v-28.207c0-5.172 4.23-9.403 9.402-9.403h65.819c5.171 0 9.402 4.231 9.402 9.403v28.207c0 5.171-4.231 9.402-9.402 9.402h-65.819c-5.171 0-9.402-4.23-9.402-9.402zM380.806 332.167l-32.311-37.764M400.807 332.167l-40.773-47.012M420.81 332.167l-40.774-47.012M433.118 322.919l-32.31-37.764M380.806 285.155l-32.311 37.764M400.807 285.155l-40.773 47.012M420.81 285.155l-40.774 47.012M433.118 294.403l-32.31 37.764M62.314 112.52v46.687c0 1.026-.803 1.867-1.785 1.867h-1.046c-.982 0-1.785-.84-1.785-1.867V112.52h4.616zM45.543 27.745h28.156c5.162 0 9.386 4.239 9.386 9.42V103.1c0 5.18-4.224 9.42-9.386 9.42H45.543c-5.162 0-9.386-4.24-9.386-9.42V37.164c0-5.18 4.224-9.42 9.386-9.42zM36.157 60.114l37.696-32.37M36.157 80.922l46.928-40.846M36.157 100.96l46.928-40.846M45.389 112.52l37.696-32.368M83.085 60.114l-37.696-32.37M83.085 80.922L36.157 40.076M83.085 100.96L36.157 60.114M73.853 112.52L36.157 80.153" opacity=".113"/>
        <path stroke-width="3.241" d="M266.465 65.509h4.044c1.427 0 2.615 1.159 2.594 2.573l-2.594 173.574c-.053 3.566-3.992 3.508-4.044 0l-2.593-173.574c-.022-1.416 1.166-2.573 2.593-2.573zM281.082 244.309h4.043c1.427 0 2.615-1.16 2.594-2.574L285.125 68.16c-.052-3.565-3.99-3.508-4.043 0l-2.594 173.574c-.02 1.415 1.168 2.574 2.594 2.574zM2.594 4.624h4.044c1.427 0 2.615 1.16 2.593 2.573L6.638 180.772c-.053 3.565-3.992 3.507-4.044 0L0 7.197c-.02-1.415 1.168-2.573 2.594-2.573zM17.211 183.424h4.043c1.427 0 2.615-1.16 2.594-2.574L21.254 7.276c-.052-3.565-3.991-3.507-4.043 0L14.617 180.85c-.02 1.416 1.167 2.574 2.594 2.574z" opacity=".113"/>
        <path stroke-linecap="round" stroke-linejoin="round" stroke-width="3.241" d="M496.343 32.421l40.526-.052c11.5-.014 11.347 17.736 0 16.075-18.239-2.67-43.742-9.825-51.057-6.159-10.437 5.232-65.772 11.717-65.772-9.864h76.303zM432.281 69.139a1.35 1.35 0 0 1-1.356-1.336c0-.735.613-1.301 1.356-1.336l18.17-.865V62.85l-18.17-.863c-1.864-.09-2.056-2.898 0-2.996l18.17-.864v-2.751l-18.17-.865c-.744-.035-1.356-.6-1.356-1.336 0-.735.613-1.331 1.356-1.336l29.869-.202c3.833-.027 7.118 1.693 8.31 5.087l66.374-2.953c11.502-.511 11.438 13.964 0 13.455l-66.374-2.951c-1.192 3.393-4.474 5.087-8.31 5.087-6.892 0-22.976-.223-29.869-.223zM57.556 236.653l-40.526-.051c-11.5-.016-11.348 17.735 0 16.075 18.24-2.671 43.742-9.826 51.057-6.16 10.437 5.233 65.772 11.717 65.772-9.864H57.556zM121.618 274.142a1.35 1.35 0 0 0 1.356-1.337c0-.734-.613-1.3-1.356-1.335l-18.169-.865v-2.75l18.169-.866c1.864-.088 2.056-2.897 0-2.995l-18.169-.864v-2.752l18.169-.863c.744-.035 1.356-.601 1.356-1.337 0-.734-.613-1.33-1.356-1.336l-29.87-.202c-3.832-.027-7.117 1.694-8.31 5.087l-66.374-2.952c-11.501-.512-11.437 13.963 0 13.454l66.375-2.951c1.192 3.393 4.474 5.088 8.31 5.088 6.892 0 22.976-.224 29.869-.224zM97.754 49.182l-.052-40.599c-.014-11.52 17.704-11.368 16.045 0-2.665 18.273-9.807 43.82-6.147 51.149 5.223 10.455 11.696 65.89-9.846 65.89v-76.44zM134.406 113.359c0 .747-.6 1.358-1.335 1.358-.733 0-1.298-.613-1.333-1.358l-.863-18.2h-2.746l-.863 18.2c-.089 1.867-2.893 2.06-2.99 0l-.862-18.2h-2.747l-.862 18.2c-.036.746-.6 1.358-1.334 1.358-.734 0-1.33-.613-1.334-1.358l-.202-29.922c-.026-3.84 1.691-7.13 5.077-8.325l-2.946-66.494c-.51-11.523 13.938-11.458 13.43 0l-2.946 66.494c3.387 1.194 5.078 4.482 5.078 8.325 0 6.904-.222 23.017-.222 29.922zM368.445 162.473l.052-40.598c.014-11.52-17.704-11.369-16.046 0 2.665 18.272 9.808 43.82 6.147 51.148-5.222 10.456-11.695 65.89 9.847 65.89v-76.44zM331.023 226.651c0 .747.6 1.358 1.334 1.358.734 0 1.299-.613 1.334-1.358l.863-18.202h2.746l.862 18.202c.09 1.867 2.893 2.06 2.99 0l.863-18.202h2.747l.862 18.202c.036.746.6 1.358 1.334 1.358.733 0 1.329-.614 1.333-1.358l.203-29.923c.026-3.84-1.691-7.13-5.077-8.324l2.946-66.495c.51-11.523-13.938-11.458-13.43 0l2.946 66.495c-3.387 1.193-5.078 4.481-5.078 8.324 0 6.904.222 23.018.222 29.923z" opacity=".113"/>
        <path stroke-width="3.233" d="M622.517 244.506h98.286c2.82 0 5.127 2.312 5.127 5.136 0 2.825-2.308 5.135-5.127 5.135h-98.286c-2.82 0-5.127-2.31-5.127-5.135 0-2.824 2.307-5.136 5.127-5.136z" opacity=".113"/>
        <path stroke-linecap="round" stroke-linejoin="round" stroke-width="3.241" d="M671.66 237.822h-44.124c0-24.413 19.755-44.203 44.124-44.203 24.37 0 44.125 19.79 44.125 44.203H671.66z" opacity=".113"/>
        <path stroke-linecap="round" stroke-linejoin="round" stroke-width="3.246" d="M627.533 261.52h88.248v.002c0 8.362-6.83 15.204-15.178 15.204H642.71c-8.347 0-15.177-6.842-15.177-15.204v-.001z" opacity=".113"/>
        <path stroke-width="3.233" d="M199.904 400.247h98.286c2.82 0 5.126 2.31 5.126 5.135 0 2.825-2.306 5.136-5.126 5.136h-98.286c-2.82 0-5.126-2.311-5.126-5.136 0-2.824 2.307-5.135 5.126-5.135z" opacity=".113"/>
        <path stroke-linecap="round" stroke-linejoin="round" stroke-width="3.246" d="M204.922 417.26h88.249c0 8.364-6.83 15.205-15.179 15.205H220.1c-8.348 0-15.178-6.841-15.178-15.205z" opacity=".113"/>
        <path stroke-linecap="round" stroke-linejoin="round" stroke-width="3.24" d="M556.9 199.092v-89.839c7.476 0 13.592 6.128 13.592 13.617v62.606c0 7.489-6.116 13.616-13.592 13.616z" opacity=".113"/>
        <path stroke-width="3.245" d="M791.422 339.768h-98.98c-4.941 0-8.984-4.051-8.984-9.001 0-4.95 4.043-9 8.984-9h98.98c4.942 0 8.985 4.05 8.985 9s-4.043 9-8.985 9z" opacity=".113"/>
        <path stroke-linecap="round" stroke-linejoin="round" stroke-width="3.24" d="M786.774 316.12h-89.678c0-7.49 6.117-13.616 13.593-13.616h62.492c7.477 0 13.593 6.127 13.593 13.616zM786.774 345.414h-89.678c0 7.49 6.116 13.617 13.593 13.617h62.492c7.477 0 13.593-6.128 13.593-13.617z" opacity=".113"/>
        <path stroke-width="3.242" d="M586.746 404.32c0-5.633-4.557-10.198-10.18-10.198-5.622 0-10.18 4.565-10.18 10.198s4.558 10.198 10.18 10.198c5.623 0 10.18-4.565 10.18-10.198zM620.412 386.8c0-5.632-4.558-10.198-10.18-10.198s-10.18 4.566-10.18 10.199c0 5.632 4.558 10.198 10.18 10.198s10.18-4.566 10.18-10.198zM158.579 395.713c5.622 0 10.18 4.566 10.18 10.198 0 5.633-4.558 10.2-10.18 10.2-5.623 0-10.18-4.567-10.18-10.2 0-5.632 4.557-10.198 10.18-10.198zM121.365 381.748c5.622 0 10.18 4.567 10.18 10.198 0 5.633-4.558 10.2-10.18 10.2s-10.18-4.567-10.18-10.2c0-5.631 4.558-10.198 10.18-10.198z" opacity=".113"/>
        <path stroke-linecap="round" stroke-linejoin="round" stroke-width="3.241" d="M780.328 250.91v10.528c0 15.12-37.553 16.471-37.553 0V250.91c0 5.18 8.406 9.379 18.776 9.379s18.777-4.199 18.777-9.379z" opacity=".113"/>
        <path stroke-width="3.241" d="M761.551 241.531c10.37 0 18.776 4.199 18.776 9.38 0 5.18-8.406 9.378-18.776 9.378s-18.776-4.199-18.776-9.379 8.407-9.379 18.776-9.379z" opacity=".113"/>
        <path stroke-width="3.241" d="M761.516 246.717c5.37 0 9.721 1.876 9.721 4.188 0 2.313-4.352 4.188-9.72 4.188-5.37 0-9.721-1.875-9.721-4.188 0-2.312 4.351-4.188 9.72-4.188z" opacity=".113"/>
        <path stroke-linecap="round" stroke-linejoin="round" stroke-width="3.241" d="M802.71 14.576v10.529c0 15.118-37.553 16.47-37.553 0V14.576c0 5.18 8.406 9.379 18.777 9.379 10.37 0 18.776-4.199 18.776-9.379z" opacity=".113"/>
        <path stroke-width="3.241" d="M783.934 5.197c10.37 0 18.776 4.2 18.776 9.38 0 5.18-8.407 9.378-18.776 9.378-10.37 0-18.777-4.199-18.777-9.379s8.406-9.379 18.777-9.379z" opacity=".113"/>
        <path stroke-width="3.241" d="M783.898 10.378c5.369 0 9.72 1.875 9.72 4.188 0 2.312-4.351 4.188-9.72 4.188-5.37 0-9.721-1.876-9.721-4.188 0-2.313 4.352-4.188 9.72-4.188z" opacity=".113"/>
        <path stroke-linecap="round" stroke-linejoin="round" stroke-width="3.079" d="M639.572 6.378h-82.038c0 9.723 1.687 19.05 4.782 27.706l1.036-.429a4.01 4.01 0 0 1 5.244 2.176 4.023 4.023 0 0 1-2.172 5.254l-1.031.427a82.334 82.334 0 0 0 13.406 20.064l.774-.777a4.01 4.01 0 0 1 5.677 0 4.028 4.028 0 0 1 0 5.688l-.775.776a82.144 82.144 0 0 0 20.027 13.429l.427-1.033a4.011 4.011 0 0 1 5.244-2.176 4.025 4.025 0 0 1 2.173 5.254l-.429 1.036a81.563 81.563 0 0 0 23.642 4.692v-1.103a4.019 4.019 0 0 1 4.014-4.021 4.019 4.019 0 0 1 4.014 4.021v1.103c8.26-.4 16.2-2.021 23.641-4.691l-.428-1.037a4.024 4.024 0 0 1 2.172-5.254 4.01 4.01 0 0 1 5.244 2.175l.429 1.035a82.153 82.153 0 0 0 20.028-13.429l-.777-.778a4.026 4.026 0 0 1 0-5.687 4.01 4.01 0 0 1 5.676 0l.777.778a82.36 82.36 0 0 0 13.406-20.064l-1.033-.43a4.023 4.023 0 0 1-2.172-5.252 4.012 4.012 0 0 1 5.244-2.177l1.036.43a82.176 82.176 0 0 0 4.78-27.706h-82.038z" opacity=".113"/>
        <path stroke-linecap="round" stroke-linejoin="round" stroke-width="3.242" d="M586.163 155.066H710.82c0 8.614-7.037 11.356-15.636 11.356h-93.384c-8.599 0-15.636-2.74-15.636-11.356zM586.163 131.297H710.82c0-8.246-23.872-18.504-39.618-9.382-7.878-6.718-37.543-6.718-45.42 0-15.747-9.12-39.618 1.14-39.618 9.382z" opacity=".113"/>
        <path stroke-linecap="round" stroke-linejoin="round" stroke-width="3.241" d="M586.166 143.117a6.239 6.239 0 0 1 6.234-6.245c3.442 0 6.232 2.796 6.232 6.245M611.098 143.117c0-3.45 2.79-6.245 6.233-6.245 3.442 0 6.233 2.796 6.233 6.245M636.029 143.117c0-3.45 2.79-6.245 6.233-6.245 3.442 0 6.233 2.796 6.233 6.245M660.96 143.117a6.239 6.239 0 0 1 6.234-6.245c3.442 0 6.232 2.796 6.232 6.245M685.892 143.117c0-3.45 2.79-6.245 6.233-6.245 3.441 0 6.232 2.796 6.232 6.245M598.632 143.117a6.239 6.239 0 0 0 6.234 6.244c3.44 0 6.232-2.796 6.232-6.244M623.564 143.117c0 3.448 2.79 6.244 6.233 6.244 3.442 0 6.232-2.796 6.232-6.244M648.495 143.117c0 3.448 2.79 6.244 6.233 6.244 3.442 0 6.232-2.796 6.232-6.244M673.426 143.117c0 3.448 2.79 6.244 6.233 6.244 3.442 0 6.233-2.796 6.233-6.244M698.357 143.117a6.239 6.239 0 0 0 6.234 6.244c3.441 0 6.232-2.796 6.232-6.244" opacity=".113"/>
        <path stroke-linecap="round" stroke-linejoin="round" stroke-width="3.242" d="M681.936 424.686h124.656c0 8.615-7.037 11.357-15.635 11.357h-93.385c-8.598 0-15.636-2.742-15.636-11.357zM681.936 400.918h124.656c0-8.246-23.872-18.504-39.618-9.382-7.877-6.719-37.543-6.719-45.42 0-15.747-9.122-39.618 1.14-39.618 9.381z" opacity=".113"/>
        <path stroke-linecap="round" stroke-linejoin="round" stroke-width="3.241" d="M681.94 412.739a6.239 6.239 0 0 1 6.234-6.244c3.442 0 6.232 2.795 6.232 6.244M706.872 412.739c0-3.45 2.79-6.244 6.233-6.244 3.442 0 6.232 2.795 6.232 6.244M731.803 412.739c0-3.45 2.79-6.244 6.233-6.244 3.442 0 6.233 2.795 6.233 6.244M756.734 412.739a6.239 6.239 0 0 1 6.234-6.244c3.441 0 6.232 2.795 6.232 6.244M781.666 412.739c0-3.45 2.79-6.244 6.233-6.244 3.441 0 6.232 2.795 6.232 6.244" opacity=".113"/>
        <path stroke-linecap="round" stroke-linejoin="round" stroke-width="3.241" d="M694.406 412.739c0 3.448 2.791 6.244 6.233 6.244 3.442 0 6.233-2.796 6.233-6.244M719.337 412.739a6.239 6.239 0 0 0 6.234 6.244c3.442 0 6.232-2.796 6.232-6.244M744.269 412.739c0 3.448 2.79 6.244 6.233 6.244 3.442 0 6.232-2.796 6.232-6.244M769.2 412.739c0 3.448 2.79 6.244 6.233 6.244 3.442 0 6.233-2.796 6.233-6.244M794.13 412.739a6.239 6.239 0 0 0 6.234 6.244c3.442 0 6.233-2.796 6.233-6.244" opacity=".113"/>
        <path stroke-linecap="round" stroke-linejoin="round" stroke-width="3.242" d="M359.478 395.135h124.656c0 8.614-7.037 11.357-15.636 11.357h-93.383c-8.599 0-15.637-2.741-15.637-11.357z" opacity=".113"/>
        <path stroke-linecap="round" stroke-linejoin="round" stroke-width="3.241" d="M371.946 383.188c0 3.448 2.79 6.244 6.233 6.244 3.442 0 6.233-2.796 6.233-6.244M396.877 383.188c0 3.448 2.79 6.244 6.233 6.244 3.443 0 6.233-2.796 6.233-6.244M421.809 383.188c0 3.448 2.79 6.244 6.233 6.244 3.441 0 6.232-2.796 6.232-6.244M446.74 383.188c0 3.448 2.79 6.244 6.233 6.244 3.441 0 6.232-2.796 6.232-6.244M471.67 383.188c0 3.448 2.792 6.244 6.234 6.244s6.232-2.796 6.232-6.244" opacity=".113"/>
        <path stroke-width="3.241" d="M731.521 43.407h4.008c1.414 0 2.591 1.16 2.57 2.575l-2.57 173.702c-.052 3.568-3.956 3.51-4.008 0l-2.57-173.702c-.022-1.417 1.156-2.575 2.57-2.575zM746.088 222.338h4.008c1.414 0 2.591-1.16 2.571-2.574l-2.57-173.703c-.052-3.568-3.957-3.51-4.009 0l-2.57 173.703c-.02 1.415 1.157 2.574 2.57 2.574zM299.699 443.946v-4.015c0-1.417 1.158-2.596 2.57-2.576l173.39 2.576c3.562.052 3.504 3.964 0 4.015l-173.39 2.575c-1.414.022-2.57-1.158-2.57-2.575zM478.309 429.352v-4.015c0-1.416-1.159-2.596-2.571-2.575l-173.39 2.575c-3.562.052-3.504 3.963 0 4.015l173.39 2.576c1.414.02 2.57-1.16 2.57-2.576z" opacity=".113"/>
        <path stroke-linecap="round" stroke-linejoin="round" stroke-width="3.241" d="M607.141 275.099l.05 40.488c.016 11.49-17.436 11.338-15.803 0 2.626-18.222 9.66-43.701 6.055-51.01-5.143-10.428-11.519-65.712 9.698-65.712v76.234zM570.115 210.971c0-.746.61-1.356 1.355-1.356s1.319.613 1.354 1.356l.876 18.18h2.789l.876-18.18c.09-1.864 2.937-2.056 3.037 0l.876 18.18h2.789l.875-18.18c.036-.745.61-1.356 1.356-1.356.744 0 1.349.614 1.354 1.356l.205 29.887c.027 3.836-1.717 7.123-5.157 8.315l2.992 66.414c.52 11.51-14.154 11.445-13.638 0l2.992-66.414c-3.44-1.192-5.158-4.476-5.158-8.315 0-6.896.227-22.99.227-29.887zM769.572 148.143l-.05 40.489c-.015 11.49 17.436 11.338 15.803 0-2.625-18.223-9.659-43.702-6.055-51.01 5.145-10.428 11.519-65.713-9.698-65.713v76.234zM806.596 84.016a1.36 1.36 0 0 0-1.355-1.356c-.745 0-1.318.612-1.354 1.356l-.876 18.18h-2.79l-.876-18.18c-.09-1.864-2.936-2.057-3.036 0l-.876 18.18h-2.79l-.875-18.18c-.036-.745-.61-1.356-1.354-1.356-.746 0-1.35.613-1.355 1.356l-.205 29.888c-.028 3.834 1.716 7.12 5.156 8.314l-2.992 66.414c-.518 11.51 14.154 11.445 13.638 0l-2.99-66.414c3.439-1.193 5.156-4.477 5.156-8.314 0-6.897-.226-22.99-.226-29.888z" opacity=".113"/>
    </g>
</svg>
