<?xml version="1.0" encoding="UTF-8"?>
<!DOCTYPE svg PUBLIC "-//W3C//DTD SVG 1.1//EN" "http://www.w3.org/Graphics/SVG/1.1/DTD/svg11.dtd">
<!-- Creator: CorelDRAW 2020 (64 Bit) -->
<svg xmlns="http://www.w3.org/2000/svg" xml:space="preserve" width="2.11667cm" height="2.11667cm" version="1.1" style="shape-rendering:geometricPrecision; text-rendering:geometricPrecision; image-rendering:optimizeQuality; fill-rule:evenodd; clip-rule:evenodd"
viewBox="0 0 2116.67 2116.67"
 xmlns:xlink="http://www.w3.org/1999/xlink"
 xmlns:xodm="http://www.corel.com/coreldraw/odm/2003">
 <defs>
  <style type="text/css">
   <![CDATA[
    .fil1 {fill:none}
    .fil0 {fill:#FEFEFE}
    .fil3 {fill:#FD4C3A}
    .fil2 {fill:#FD4C3A;fill-rule:nonzero}
   ]]>
  </style>
   <clipPath id="id0">
    <path d="M172.25 0l1772.17 0c94.73,0 172.25,77.51 172.25,172.25l0 1772.17c0,94.73 -77.51,172.25 -172.25,172.25l-1772.17 0c-94.74,0 -172.25,-77.51 -172.25,-172.25l0 -1772.17c0,-94.74 77.51,-172.25 172.25,-172.25z"/>
   </clipPath>
    <clipPath id="id1">
    </clipPath>
    <clipPath id="id2">
     <path d="M172.25 0l1772.17 0c94.73,0 172.25,77.51 172.25,172.25l0 1772.17c0,94.73 -77.51,172.25 -172.25,172.25l-1772.17 0c-94.74,0 -172.25,-77.51 -172.25,-172.25l0 -1772.17c0,-94.74 77.51,-172.25 172.25,-172.25z"/>
    </clipPath>
 </defs>
 <g id="Camada_x0020_1">
  <metadata id="CorelCorpID_0Corel-Layer"/>
  <path class="fil0" d="M172.25 0l1772.17 0c94.73,0 172.25,77.51 172.25,172.25l0 1772.17c0,94.73 -77.51,172.25 -172.25,172.25l-1772.17 0c-94.74,0 -172.25,-77.51 -172.25,-172.25l0 -1772.17c0,-94.74 77.51,-172.25 172.25,-172.25z"/>
  <g style="clip-path:url(#id0)">
   <g id="_1578381702736">
   </g>
   <g style="clip-path:url(#id1)">
    <image x="-2347.92" y="-529.06" width="2191.96" height="2741.95" xlink:href="icon_Images\icon_ImgID1.png"/>
   </g>
   <g style="clip-path:url(#id2)">
   </g>
  </g>
  <path class="fil1" d="M172.25 0l1772.17 0c94.73,0 172.25,77.51 172.25,172.25l0 1772.17c0,94.73 -77.51,172.25 -172.25,172.25l-1772.17 0c-94.74,0 -172.25,-77.51 -172.25,-172.25l0 -1772.17c0,-94.74 77.51,-172.25 172.25,-172.25z"/>
  <g id="_1578381701920">
   <g>
    <path class="fil2" d="M785.36 1768.12l-9.94 0 -1.66 -44.73 43.08 0 0 44.73 -31.48 0zm56.33 -104.37l-19.88 0 -3.31 36.45 -64.61 0 -3.31 89.46 94.43 0 -3.31 -125.91zm81.18 72.9c0,3.31 -34.79,0 -34.79,0l-1.66 -19.88c0,0 31.15,-3.64 34.79,0 1.66,1.66 1.66,16.57 1.66,19.88zm18.22 33.13l-51.36 0 -3.32 -14.91 56.33 -1.66 -1.66 -54.67 -8.28 -1.66 -69.58 3.31 -1.66 89.46 82.84 0 -3.31 -19.88zm39.76 -104.37l-19.88 1.66c0,0 -1.66,122.6 1.66,122.6l23.19 0 -4.97 -124.26zm44.73 36.45l-23.19 0 1.66 86.15 28.16 1.66 -6.63 -87.81zm0 -36.12l-21.54 0 0 28.16 21.54 -1.66 0 -26.51zm79.52 34.46l-14.91 61.3 -9.94 0 -11.6 -61.3 -19.88 0 16.57 89.46 38.1 0 28.16 -89.46 -26.51 0zm101.06 36.45c0,3.31 -34.79,0 -34.79,0l-1.66 -19.88c0,0 31.15,-3.64 34.79,0 1.66,1.66 1.66,16.57 1.66,19.88zm18.22 33.13l-51.36 0 -3.31 -14.91 56.33 -1.66 -1.66 -54.67 -8.28 -1.66 -69.58 3.31 -1.66 89.46 82.84 0 -3.31 -19.88zm86.15 -69.58l-38.1 0 -8.28 -1.66 -19.88 1.66 1.66 89.46 28.16 0 -4.97 -64.61 23.2 -1.66 3.31 18.22 19.88 0 -4.97 -41.42zm81.18 4.97l-3.31 66.27 -29.82 0 -3.31 -67.93 -23.2 0 8.28 86.15 49.7 0 0 31.48 -51.36 3.31 1.66 18.22 67.93 1.66 4.97 -139.17 -21.54 0z"/>
    <g>
     <path class="fil2" d="M700.06 1558.85l-5.98 -55.06 109.54 -17.18 17.56 59.07 -121.12 13.16zm158.47 -284.61l-252.68 27.46 12.4 65.5 182.59 -8.7 7.81 71.86 -191.21 31.92 23.11 158.74 269.48 -29.28 -51.51 -317.5zm251.06 0.57l-75.92 -3.7 -9.07 -115.21 -75.92 -3.7 -2.25 127.2 -52.45 1.48 1.64 58.27 52.61 4.35 24.53 250.08 99.06 -2.79 -30.36 -249.91 75.59 -7.96 -7.47 -58.11zm295.68 12.85l-81.25 -9.66 -5.12 233.2 -104.82 -4.93 -0.97 -227.65 -81.52 -3.83 2.69 315.27 267.86 12.59 3.13 -314.99zm243.46 31.27l-74.42 -15.46 8.96 -115.22 -74.42 -15.46 -22.02 125.3 -52.04 -6.7 -7.45 57.82 51.29 12.49 -14.68 250.85 98.29 12.66 8.9 -251.59 75.91 3.9 1.67 -58.56z"/>
     <path class="fil2" d="M1733.11 1566.43l-6.51 -52.58 66.77 -280.06 135.54 19.39c0,0 -5.11,75.67 -25.53,161.29l-43.44 182.2 -126.83 -30.24zm276.37 -300.17c-1.19,-20.7 -12.37,-45.14 -23.5,-64.12l-210.43 -56.3 -42.53 15.72c-14.35,8.83 -23.65,24.98 -28.16,38.19l-74.03 336.16 -1.59 89.43 248.51 59.25 55.5 -18.75 76.22 -399.6z"/>
     <path class="fil2" d="M441.06 1145.46l-101.83 21.92 -38.63 161.44 -109.16 -136.68 -84.26 11.79 109.75 509.83 108.58 -23.37 -72.65 -304.72c0,0 49.55,76.13 51,82.87 1.31,6.07 43.73,-16.47 43.73,-16.47l49.67 -110.19 100.22 311.49 120.71 -25.99 -177.13 -481.92z"/>
    </g>
   </g>
   <path class="fil3" d="M483.92 993.86c-5.25,0 -6.7,-0.1 -9.44,-4.2 16.99,-25.37 25.22,4.2 9.44,4.2zm574.75 -610.16l17.31 54.17c-6.1,-1.55 -12.5,-2.36 -19.09,-2.36 -6.6,0 -12.98,0.82 -19.09,2.36l17.31 -54.17c0.25,-0.79 0.95,-1.31 1.79,-1.31 0.84,0 1.54,0.52 1.79,1.31zm-5.68 71.87c-20.67,29.62 -24.3,33.27 -53.94,53.94 -1.32,0.91 -2.03,2.29 -2.03,3.89 0,1.6 0.71,2.98 2.03,3.89 29.62,20.67 33.27,24.3 53.94,53.94 0.91,1.32 2.29,2.03 3.9,2.03 1.6,0 2.98,-0.71 3.89,-2.03 20.67,-29.62 24.3,-33.27 53.94,-53.94 1.32,-0.91 2.03,-2.29 2.03,-3.89 0,-1.6 -0.71,-2.98 -2.03,-3.89 -29.64,-20.67 -33.27,-24.32 -53.94,-53.94 -0.91,-1.32 -2.29,-2.04 -3.89,-2.04 -1.6,0 -2.98,0.72 -3.89,2.04zm4.78 -15.82c39.97,0.47 72.28,32.8 72.77,72.77 -41.83,-29.07 -43.69,-30.93 -72.77,-72.77zm72.77 74.53c-0.47,39.97 -32.8,72.28 -72.77,72.76 29.07,-41.82 30.93,-43.69 72.77,-72.76zm-74.53 72.76c-39.97,-0.47 -72.29,-32.8 -72.77,-72.76 41.82,29.07 43.69,30.93 72.77,72.76zm-72.77 -74.53c0.47,-39.97 32.8,-72.29 72.77,-72.77 -29.07,41.82 -30.93,43.69 -72.77,72.77zm113.56 -66.03l50.54 -26.08c0.73,-0.38 1.61,-0.24 2.19,0.34 0.59,0.58 0.72,1.46 0.34,2.19l-26.08 50.54c-6.63,-11.08 -15.92,-20.38 -27,-27zm35.62 47.81l54.17 17.31c0.79,0.25 1.31,0.95 1.31,1.79 0,0.84 -0.52,1.54 -1.31,1.79l-54.17 17.31c1.55,-6.1 2.36,-12.5 2.36,-19.09 0,-6.6 -0.81,-12.98 -2.36,-19.1zm-8.62 59l26.08 50.54c0.38,0.73 0.24,1.6 -0.34,2.19 -0.59,0.59 -1.46,0.72 -2.19,0.34l-50.54 -26.08c11.08,-6.63 20.38,-15.92 27,-27zm-47.81 35.62l-17.31 54.17c-0.25,0.79 -0.95,1.31 -1.79,1.31 -0.84,-0 -1.54,-0.52 -1.79,-1.31l-17.31 -54.17c6.1,1.55 12.5,2.36 19.09,2.36 6.59,0 12.98,-0.82 19.09,-2.36zm-59 -8.62l-50.54 26.08c-0.73,0.38 -1.61,0.24 -2.19,-0.34 -0.59,-0.59 -0.72,-1.46 -0.34,-2.19l26.08 -50.54c6.63,11.08 15.92,20.38 27,27zm-35.62 -47.81l-54.17 -17.31c-0.79,-0.25 -1.31,-0.95 -1.31,-1.79 0,-0.84 0.52,-1.54 1.31,-1.79l54.17 -17.31c-1.55,6.1 -2.36,12.5 -2.36,19.09 0,6.59 0.82,12.98 2.36,19.1zm8.62 -59l-26.08 -50.54c-0.38,-0.73 -0.24,-1.61 0.34,-2.19 0.58,-0.59 1.46,-0.72 2.19,-0.35l50.54 26.08c-11.08,6.63 -20.38,15.92 -27,27zm-390.85 184.86l29.15 26.51c-4.2,1.19 -8.32,2.91 -12.27,5.2 -3.96,2.28 -7.51,4.99 -10.64,8.03l-8.38 -38.5c-0.12,-0.56 0.12,-1.11 0.62,-1.4 0.5,-0.29 1.1,-0.22 1.53,0.16zm21.49 45.09c-2.14,24.93 -3.06,28.38 -13.68,51.05 -0.47,1.01 -0.42,2.08 0.13,3.04 0.56,0.96 1.46,1.54 2.57,1.63 24.93,2.14 28.38,3.06 51.05,13.68 1.01,0.47 2.08,0.42 3.04,-0.13 0.96,-0.56 1.54,-1.46 1.63,-2.57 2.14,-24.93 3.06,-28.38 13.68,-51.05 0.47,-1.01 0.42,-2.08 -0.13,-3.04 -0.55,-0.96 -1.46,-1.54 -2.57,-1.63 -24.94,-2.14 -28.38,-3.07 -51.05,-13.68 -1.01,-0.47 -2.08,-0.43 -3.04,0.12 -0.96,0.56 -1.54,1.47 -1.63,2.57zm-2.61 -11.14c24.14,-13.56 54.73,-5.36 68.87,18.45 -35.17,-2.95 -36.93,-3.42 -68.87,-18.45zm69.48 19.51c13.56,24.14 5.36,54.73 -18.45,68.87 2.95,-35.17 3.42,-36.93 18.45,-68.87zm-19.51 69.48c-24.14,13.56 -54.73,5.36 -68.87,-18.45 35.17,2.95 36.93,3.42 68.87,18.45zm-69.48 -19.51c-13.56,-24.14 -5.36,-54.73 18.45,-68.87 -2.95,35.17 -3.42,36.93 -18.45,68.87zm45.26 -78.95l21.29 -33.15c0.31,-0.48 0.88,-0.7 1.43,-0.55 0.55,0.15 0.94,0.62 0.97,1.19l1.86 39.36c-7.81,-4.35 -16.61,-6.71 -25.55,-6.85zm37.93 16.35l38.5 -8.38c0.56,-0.12 1.11,0.12 1.4,0.62 0.29,0.5 0.22,1.1 -0.16,1.53l-26.51 29.15c-1.18,-4.2 -2.91,-8.32 -5.2,-12.27 -2.28,-3.96 -4.99,-7.51 -8.03,-10.64zm15.27 38.39l33.15 21.29c0.48,0.31 0.7,0.88 0.55,1.43 -0.15,0.55 -0.62,0.94 -1.19,0.97l-39.36 1.86c4.35,-7.81 6.71,-16.61 6.85,-25.55zm-16.35 37.93l8.38 38.5c0.12,0.56 -0.12,1.11 -0.62,1.4 -0.5,0.29 -1.1,0.22 -1.53,-0.17l-29.15 -26.51c4.2,-1.18 8.32,-2.91 12.27,-5.2 3.96,-2.28 7.51,-4.99 10.64,-8.03zm-38.39 15.27l-21.29 33.15c-0.31,0.48 -0.88,0.7 -1.43,0.55 -0.55,-0.15 -0.94,-0.62 -0.97,-1.19l-1.86 -39.36c7.81,4.35 16.61,6.71 25.55,6.85zm-37.93 -16.35l-38.5 8.38c-0.56,0.12 -1.11,-0.12 -1.4,-0.62 -0.29,-0.5 -0.22,-1.1 0.17,-1.53l26.51 -29.15c1.18,4.2 2.91,8.32 5.2,12.27 2.28,3.96 4.99,7.51 8.03,10.64zm-15.27 -38.39l-33.15 -21.29c-0.48,-0.31 -0.7,-0.88 -0.55,-1.43 0.15,-0.55 0.62,-0.94 1.19,-0.97l39.36 -1.86c-4.35,7.81 -6.71,16.61 -6.85,25.55zm925.61 -77.67l-29.15 26.51c4.2,1.19 8.32,2.91 12.27,5.2 3.96,2.28 7.51,4.99 10.64,8.03l8.38 -38.5c0.12,-0.56 -0.12,-1.11 -0.62,-1.4 -0.5,-0.29 -1.1,-0.22 -1.53,0.16zm-21.49 45.09c2.14,24.93 3.06,28.38 13.68,51.05 0.47,1.01 0.42,2.08 -0.13,3.04 -0.56,0.96 -1.46,1.54 -2.57,1.63 -24.93,2.14 -28.38,3.06 -51.05,13.68 -1.01,0.47 -2.08,0.42 -3.04,-0.13 -0.96,-0.56 -1.54,-1.46 -1.63,-2.57 -2.14,-24.93 -3.06,-28.38 -13.68,-51.05 -0.47,-1.01 -0.42,-2.08 0.13,-3.04 0.56,-0.96 1.46,-1.54 2.57,-1.63 24.94,-2.14 28.38,-3.07 51.05,-13.68 1.01,-0.47 2.08,-0.43 3.04,0.12 0.96,0.56 1.54,1.47 1.63,2.57zm2.61 -11.14c-24.14,-13.56 -54.73,-5.36 -68.87,18.45 35.17,-2.95 36.93,-3.42 68.87,-18.45zm-69.48 19.51c-13.56,24.14 -5.36,54.73 18.45,68.87 -2.95,-35.17 -3.42,-36.93 -18.45,-68.87zm19.51 69.48c24.14,13.56 54.73,5.36 68.87,-18.45 -35.17,2.95 -36.93,3.42 -68.87,18.45zm69.48 -19.51c13.56,-24.14 5.36,-54.73 -18.45,-68.87 2.95,35.17 3.42,36.93 18.45,68.87zm-45.26 -78.95l-21.29 -33.15c-0.31,-0.48 -0.88,-0.7 -1.43,-0.55 -0.55,0.15 -0.94,0.62 -0.97,1.19l-1.86 39.36c7.81,-4.35 16.61,-6.71 25.55,-6.85zm-37.93 16.35l-38.5 -8.38c-0.56,-0.12 -1.11,0.12 -1.4,0.62 -0.29,0.5 -0.22,1.1 0.17,1.53l26.51 29.15c1.18,-4.2 2.91,-8.32 5.2,-12.27 2.28,-3.96 4.99,-7.51 8.03,-10.64zm-15.27 38.39l-33.15 21.29c-0.48,0.31 -0.7,0.88 -0.55,1.43 0.15,0.55 0.62,0.94 1.19,0.97l39.36 1.86c-4.35,-7.81 -6.71,-16.61 -6.85,-25.55zm16.35 37.93l-8.38 38.5c-0.12,0.56 0.12,1.11 0.62,1.4 0.5,0.29 1.1,0.22 1.53,-0.17l29.15 -26.51c-4.2,-1.18 -8.32,-2.91 -12.27,-5.2 -3.96,-2.28 -7.51,-4.99 -10.64,-8.03zm38.39 15.27l21.29 33.15c0.31,0.48 0.88,0.7 1.43,0.55 0.55,-0.15 0.94,-0.62 0.97,-1.19l1.86 -39.36c-7.81,4.35 -16.61,6.71 -25.55,6.85zm37.93 -16.35l38.5 8.38c0.56,0.12 1.11,-0.12 1.4,-0.62 0.29,-0.5 0.22,-1.1 -0.16,-1.53l-26.51 -29.15c-1.19,4.2 -2.91,8.32 -5.2,12.27 -2.28,3.96 -4.99,7.51 -8.03,10.64zm15.27 -38.39l33.15 -21.29c0.48,-0.31 0.7,-0.88 0.55,-1.43 -0.15,-0.55 -0.62,-0.94 -1.19,-0.97l-39.36 -1.86c4.35,7.81 6.71,16.61 6.85,25.55zm101.9 243.15c3.98,0 10.77,7.77 12.59,10.49 -4.39,6.55 -15.18,5.62 -17.98,-2.06 -1.14,-3.13 0.57,-8.43 5.39,-8.43zm-22.04 -14.69l1.05 -6.3c6.1,1.63 12.59,17.79 12.59,23.09 0,8.78 -13.64,2.98 -13.64,-16.79zm-1109.14 16.79c0,-5.34 5.84,-18.42 9.2,-21.43 8.4,-7.53 3.56,22.27 -3.64,25.07 -3.23,1.26 -5.55,-0.62 -5.55,-3.64zm1223.52 -49.32c9.57,0.8 8.4,4.03 8.4,10.49 0,3.44 -2.12,3.94 -5.25,4.2 -1.34,-5.75 -3.15,-6.45 -3.15,-14.69zm-1329.5 14.69c-6.93,-4.64 -4.75,-14.47 5.25,-14.69 0,7.14 -0.91,11.79 -5.25,14.69zm1155.31 -24.13c0.14,-0.21 0.34,-0.81 0.4,-0.64 0.42,1.06 0.69,-1.05 0.84,-1.25l1.9 -2.3c16.91,3.94 24.08,22.24 36.73,25.18 -4.35,16.31 -38.73,-7.3 -39.87,-20.99zm-975.88 0c-1.11,13.38 -35.48,37.44 -39.87,20.99 9.88,-2.3 19.18,-16.76 29.02,-22.43 5.81,-3.34 7.15,-2.82 10.85,1.44zm975.88 0c-5.76,2.76 -26.16,0.6 -28.33,-6.3 -1.56,-4.95 9.85,-16.94 23.91,-2.93 3.01,3 4.29,3.58 4.42,9.22zm-975.88 0c0.15,-6.58 6.09,-12.97 12.25,-15.09 4.01,-1.38 8.04,-0.46 11.22,1.06 4.01,1.93 4.87,3.22 4.87,8.78 -8.91,2.38 1.44,4.57 -19.99,6.26 -4.14,0.33 -5.64,0.29 -8.34,-1.01zm937.05 -13.64c-9.33,0 -8.76,-7.58 -7.35,-13.64 6.62,-3.18 10.56,-1.61 14.69,3.15 -0.35,4.14 -3.23,10.49 -7.35,10.49zm-905.57 -10.49c4.13,-4.76 8.07,-6.32 14.69,-3.15 4.04,17.33 -12.75,18.3 -14.69,3.15zm870.94 -25.18c0,5.84 -3.61,10.68 -8.57,8.57l-5.27 -3.12c-0.15,-0.15 -0.36,-0.39 -0.5,-0.55 -0.14,-0.15 -0.36,-0.43 -0.48,-0.57l-0.91 -1.18c3.43,-14.7 15.74,-7.75 15.74,-3.15zm-828.97 1.05c0,-6.91 12.49,-11.87 15.74,2.1 -9.59,11.03 -15.74,4.32 -15.74,-2.1zm1015.75 -28.33c7.34,-1.71 13.18,-2.71 16.26,4.72 1.92,4.63 2.62,7.42 2.62,13.12 0,9.2 -13.9,-6.76 -15.95,-9.23 -2.18,-2.63 -2.94,-3.88 -2.94,-8.6zm-1221.42 17.84c0,-17.14 5.9,-20.86 18.89,-17.84 0,7.39 -3.62,9.42 -7.6,13.38 -1.35,1.35 -11.28,12.9 -11.28,4.46zm1209.88 -35.68c2.26,-1.52 3.09,-2.4 6.3,-3.15 2.98,2 9.96,11.54 1.05,11.54 -4,0 -5.87,-5.6 -7.35,-8.39zm-1186.79 8.39c-8.41,0 -2.77,-8.98 1.05,-11.54 2.72,0.73 3.8,1.83 6.3,3.15 -1.48,2.8 -3.34,8.39 -7.35,8.39zm789.1 -66.11l-12.59 0c-0.78,-1.17 -3.15,-3.53 -3.15,-4.2 0,-7.91 15.63,-18.98 18.45,-4.64 1.45,7.37 -1.29,2.91 -2.71,8.84zm-387.2 -5.25c0,-14.65 11.18,-11.24 16.09,-5.57 4.02,4.65 2.33,6.81 -0.35,10.81l-12.59 0c-1.08,-4.06 -3.15,-3.65 -3.15,-5.25zm43.02 -2.1c-5.35,0 -1.74,-0.01 -3.15,1.05 -6.02,-1.99 3.09,-1.32 -3.13,-1.64 -3.39,-0.17 -11.23,1.57 -16.8,-6.76 11.51,-17.18 26.52,-7.41 23.08,7.35zm304.31 0c-4.61,-9.61 9.36,-27.84 23.09,-7.35 -7.36,8.47 -10.33,5.97 -19.47,7.51 -2.22,0.37 -0.04,0.67 -3.62,-0.17zm-54.56 -32.53c7.7,-11.5 27.28,-11.75 27.28,3.15 0,5.59 -7.83,4.89 -8.9,5.05 -1.68,0.24 -6.21,3.46 -13.35,-1.68 -4.51,-3.24 -4.47,-5.45 -5.03,-6.51zm-207.77 9.44c-3.79,0 -2.13,-0.94 -8.8,-1.53 -15.82,-1.39 1.9,-30.34 21.39,-7.91 -1.49,2.82 -1.77,3.9 -4.43,6.06 -1.53,1.25 -5.95,3.38 -8.16,3.38zm694.66 -39.88c7.14,0 10.97,3.53 15.7,6.34 3.73,2.22 9.18,6.46 12.39,9.64 16.17,16.01 53.36,60.52 53.76,78.46 -9.53,-5.04 -15.85,-13.23 -23.35,-20.72l-41.87 -46.28c-5.16,-6.35 -16.4,-19.05 -16.63,-27.44zm-1250.8 94.44c0,-18.1 37.73,-62.22 53.77,-78.45 5.91,-5.98 19.22,-15.99 28.08,-15.99 -0.22,9.67 -19.62,31.17 -27.03,39.08 -13.94,14.9 -39.2,47.09 -54.82,55.36zm1186.79 -149c0,-7.76 10.14,0.63 11.73,1.92 4.94,4.01 10.33,14.62 30.46,28.31 16.17,11 12.31,12.11 18.68,25.39 -4.49,-0.37 -6.08,-2.13 -9.16,-4.48l-16.3 -13.08c-3.1,-3.02 -4.92,-4.09 -7.87,-6.82l-15.22 -14.16c-3.3,-3.18 -12.31,-11.9 -12.31,-17.07zm-1101.8 55.61c3.61,-7.51 3.48,-12.55 9.66,-18.67 6.87,-6.8 17.22,-10.65 32.06,-26.7 2.01,-2.17 10.32,-13.39 15.99,-13.39 9.95,0 -5.54,16.83 -8.64,19.69 -3.01,2.78 -4.81,3.68 -7.89,6.8 -2.54,2.56 -4.69,5.01 -7.34,7.35 -3.18,2.8 -4.67,3.67 -7.85,6.85 -4.33,4.34 -20.38,17.62 -25.99,18.09zm997.91 -131.17c0,-7.13 -0.34,-9.2 6.3,-13.64 6.82,1.82 15.29,15.51 17.06,17.57 2.28,2.66 7.04,4.99 10.21,6.57 17.23,8.6 1.68,0.18 18.9,4.19 -0.15,6.65 -0.71,2.16 -2.1,7.35 7.25,10.82 46.48,36.81 50.37,53.52 -5.59,-0.46 -11.46,-3.92 -15.31,-6.73 -4.54,-3.32 -8.15,-5.99 -12.58,-9.45 -8.64,-6.75 -16.1,-12.66 -24.87,-19.21l-31.48 -23.08c-2.17,-2.11 -3.52,-3.81 -5.74,-5.8 -2.26,-2.02 -3.57,-2.62 -6.28,-4.21 -2.95,-1.73 -4.47,-2.74 -4.47,-7.07zm-933.9 75.55c1.52,-6.53 6.27,-10.3 10.05,-15.14 12.96,-16.58 26.04,-21.94 40.32,-38.38 -1.38,-5.18 -1.95,-0.69 -2.1,-7.35 16.97,-3.95 2.17,4.21 18.19,-3.84 15.13,-7.6 7.69,-5.91 18.27,-16.36 3.04,-3.01 5.32,-6.95 9.71,-8.13 8.65,5.79 7.93,16.93 2.5,20.34 -3.02,1.89 -4.34,2.23 -6.96,4.58 -2.01,1.8 -3.31,3.35 -5.22,5.27 -3.18,3.19 -2.91,2.48 -6.64,4.91 -13.58,8.85 -48.48,36.9 -62.82,47.36 -3.85,2.81 -9.72,6.26 -15.31,6.73zm735.58 -207.77c0,-12.19 16.05,-9.98 24.4,-1.32 11.28,11.68 11.1,3.42 14.42,3.42 8.35,0 4.71,6.38 10.8,10.19 4.76,2.97 9.71,4.87 14.21,7.83l12.32 8.66c4.82,2.94 8.78,5.45 13.46,8.58l25.79 17.23c1.61,1.16 4.52,3.03 6.5,3.99 3.62,1.75 4.99,0.94 8.66,2.89 8.24,4.38 1.82,9.41 3.75,14.09 3.01,3.18 8.87,-2.75 21.45,5.83 16.11,11 13.34,22.5 7.93,22.5 -9.91,0 -8.84,-16.79 -18.89,-16.79 -4.82,0 -10.89,7.8 -18.94,-5.2 -9.35,-15.11 -7.66,3.61 -19.3,-12.18 -13.88,-18.81 -7.53,-0.53 -21.28,-12.3 -4.06,-3.48 -5.84,-5.96 -8.69,-10.2 -11.34,6 -13.58,-2.47 -22.82,-10.76 -6.93,-6.21 -27.5,-14.85 -38.25,-21.57 -4,-2.5 -15.53,-9.77 -15.53,-14.9zm-506.83 49.32c-3.2,0 -4.23,-1.01 -6.3,-2.1 -2.85,4.26 -8.84,11.56 -13.66,13.7 -7.39,3.27 -6.48,-6.14 -15.93,8.14 -10.29,15.57 -11.01,-0.37 -19.29,12.19 -3.95,6 -3.51,7.95 -11.99,7.95 -4.54,0 -4.23,-2.1 -7.34,-2.1 -10.03,0 -9.43,16.79 -18.89,16.79 -6.01,0 -7.89,-11.69 7.93,-22.5 12.57,-8.58 18.44,-2.66 21.45,-5.83 1.71,-4.15 -4.32,-9.08 3.08,-13.71 3.06,-1.92 4.35,-1.27 7.89,-2.61l19.67 -12.86c4.94,-2.97 8.91,-5.56 13.44,-8.59 4.19,-2.8 8.36,-5.34 12.8,-8.19 2.59,-1.66 3.87,-2.2 6.41,-4.09 11.21,-8.3 7.33,-5.43 20.04,-12.49 5.22,-2.9 2.49,-0.5 4.84,-5.65 4.09,-8.98 8.44,-4.3 12.58,-2.11 11.48,-6.08 12.11,-13.64 25.18,-13.64 7.15,0 17.47,7.59 -6.5,22.88 -11.69,7.46 -30.45,14.84 -38.33,21.48 -4.4,3.71 -10.56,13.35 -17.08,13.35zm477.45 -113.33c4.1,1.1 11.86,7.42 16.18,10.05 5.59,3.4 12.56,6.36 13.2,14.08 -19.1,9.17 -25.89,-16.86 -29.38,-24.13zm-407.14 24.13c0.74,-8.9 12.72,-13.66 20.78,-19.1 2.85,-1.92 5.19,-4.13 8.6,-5.04 -4.65,9.69 -11.14,32.89 -29.38,24.13zm-19.94 26.23c3.82,-5.21 23.51,-8.78 31.35,-11.67 25.11,-9.25 8.36,-3.77 18.49,-14.04 3.07,-3.11 3.82,-1.78 8.71,-2.84l6.54 -3.95c1.79,-2.21 0.32,-0.78 1.77,-3.47 5.33,-9.88 29.73,-8 39.77,-10.6 6.22,-1.61 11.46,-3.51 17.19,-4.85 -0.79,1.18 -9.42,9.1 -11.29,10.75l-24 21.12c-6.17,3.49 -12,2.21 -18.23,4.85 -10.64,4.5 -16.66,12.76 -28.99,16.14 -12.63,3.46 -31.02,-1.21 -41.31,-1.44zm299.06 -73.45c8.26,0 18.86,2.92 24.5,5.93 15.72,8.38 0.23,8.33 42.87,20.09 4.79,1.32 7.6,2.2 13.42,2.32 30.22,0.6 30.26,11.88 33.12,14.1 6.48,5.03 6.79,0.78 11.78,3.96 4.52,2.88 4.18,6.53 6.36,9.38 3.49,4.57 41.08,11.93 45.29,17.67 -4.17,0.09 -9.96,1.55 -13.79,1.95 -5.35,0.56 -10.42,0.34 -14.87,0.95 -4.87,0.67 -10.05,-0.69 -13.47,-1.69 -5.87,-1.72 -6.88,-2.51 -11.24,-5.55l-9.43 -6.3c-10.15,-7.64 -13.9,-2.83 -35.15,-13.12 -17.29,-8.37 -24.56,-11.63 -41.2,-22.81 -16.71,-11.24 -23.04,-13.7 -38.19,-26.87zm-37.78 -22.04l0 -7.35c6,4.02 3.16,4.26 0,7.35zm-32.78 -15.49c16.63,-4.06 2.76,-4.06 19.14,-0.25 -1.42,2.13 -2.48,3.1 -4.44,5.01l-3.86 3.49c-0.14,0.12 -0.46,0.38 -0.57,0.48 -0.12,0.1 -0.39,0.31 -0.57,0.47l-9.69 -9.2zm-142.46 449.91c3.65,-0.97 12.74,-8.21 8.17,-14.4 -1.55,-2.1 -2.93,-1.62 -3.97,-4.49 0.97,-1.28 0.68,1.18 1.05,-3.15 24.63,0 9.73,19.57 31.18,11.25 23.4,-9.08 26.58,-9.55 46.8,-25.61 3.19,-2.54 1.99,-0.99 3.86,-4.53 -10.59,0.88 -7.15,5.25 -27.28,5.25l-2.92 -3.37c-5.08,-13.01 35.21,-20.86 40.65,-31.3 0.33,-0.63 4.02,-8.53 4.84,-6.44 0.08,0.2 0.5,-0.14 0.61,-0.15l1.34 -0.02c3.37,0.46 7.04,3.11 9.37,5.22 5.06,4.59 2.96,4.64 6.96,12.98 6.14,-4.11 5.85,-9.73 13.64,-11.54 -0.34,-4.14 -1.05,-4.92 -1.05,-10.49 2.12,0.49 6.94,1.7 8.68,1.88 4.42,0.47 5.69,-0.9 10.21,-0.9 9.51,0 1.98,2.95 18.89,-0.98 0,5.59 -0.95,5.87 -1.05,10.49 7.79,1.81 7.5,7.43 13.64,11.54 1.81,-7.76 7.89,-18.04 17.02,-18.24 2.37,-0.05 3,0.54 4.2,2.26 3.04,4.33 -0.05,8.26 20.14,16.59 11.64,4.8 22.64,8.51 22.64,19.33l-3.37 2.92c-6.53,0.23 -8.62,0.68 -14.11,-1.18 -4.03,-1.36 -8.74,-3.49 -12.95,-3.84 1.65,6.18 30.44,22.69 38.2,25.81 5.3,2.13 19.57,8.16 23.71,5.77 5.3,-3.07 1.81,-12.69 19.93,-12.69 0,7.75 2.38,2.64 -1.2,6.14 -3.66,3.58 -5.73,5.55 0.87,12.02 2.51,2.45 2.2,2.97 5.57,3.87 2.42,3.31 10.93,7.3 15.29,9.89l98.38 52.72c6.07,3.24 11.01,5.86 16.89,9.35 5.64,3.34 10.38,6.01 16.02,9.17l48.27 27.28c37.59,21.03 74.5,43.26 110.71,66.63 5.45,3.52 9.97,6.27 15.32,9.86 30.29,20.33 60.5,40.53 89.7,62.45l78.53 59.98c12.47,9.54 8.7,0.16 16.66,-1.97 2.57,1.88 2.26,1.43 3.15,5.25 5.67,-0.47 8.58,-6.31 11.54,-10.5 5.69,-8.04 23.16,-36.41 22.93,-43.92 -0.32,-10.86 -2.34,-7.45 2.62,-17.62 6.72,-13.77 -0.4,-26.51 3.51,-36.36 2.11,-5.31 6.38,-9.9 7.67,-15.43 -5.19,-2.49 -11.23,-2.56 -16.79,-2.1 5.74,-8.58 12.96,-6.11 15.7,-18.93 4.41,-20.62 0.43,-44.14 -1.87,-65.2 -1.23,-11.28 -2.05,-21.04 -3.85,-31.89 -1.68,-10.14 2.82,-8 -3.8,-28.66 -8.68,-27.12 -24.95,-43.86 -42,-65.03l-50.48 -55.51 -31.37 -29.49c-8.09,-6.45 -17.85,-17.52 -28.07,-25.45 -8.29,-6.43 -10.71,-5.19 -17.22,-14.26 -2.56,-3.57 -29.94,-21.16 -37.72,-28.39 -14.58,-13.56 -44.97,-36.29 -59.7,-47.33l-102.26 -74.02c-7.49,-4.99 -14.21,-9.47 -21.41,-14.27l-62.96 -43.02c-7.22,-4.81 -14.03,-9.08 -21.61,-14.07 -10.35,-6.81 -34.42,-20.06 -43.45,-27.91l-4.56 1.73c-5.2,1.57 -12.78,7.16 -15.37,4.56 -2.15,-4.48 0,-9.09 0,-14.69 -6.49,-4.34 -7.29,-3.43 -13.65,-6.29 -2.45,-1.1 -4.22,-2.25 -7.04,-3.46 -9,-3.85 -18.77,-8.32 -26.24,-14.69 -2.42,-2.07 -2.92,-3.19 -5.54,-4.95 -6.7,1.56 -3.61,3.15 -13.64,3.15 -3.37,-5.03 -4.53,-9.37 -7.35,-14.69 -11.03,0.25 -14.7,0.23 -24.46,-7.02l-18.24 -15.35c-10.16,-3.49 -3,5.51 -20.51,-10.96 -4.8,-4.51 -10.95,-6.43 -17.49,-7.77 -8.43,-1.72 -4.6,-2.18 -11.97,-0.24 -6.81,1.8 -12.43,2.7 -17.78,7.5 -4.31,3.87 -8.12,9.38 -14.25,10.95 -5.33,1.37 -1.49,-0.71 -6.07,0.33 -3.33,0.75 -13.86,11.94 -18.43,15.04 -11.05,7.49 -12.28,7.81 -25,7.53 -1.5,2.83 -4.73,11.79 -6.69,13.28 -5.59,4.27 -9.8,-1.28 -15.35,-1.74 -9.42,8.18 -3.97,5.29 -16.73,12.65l-13.35 6.59c-9.42,4.37 -14.63,5.66 -21.33,10.15 0,5.61 2.15,10.21 0,14.69 -4.61,4.61 -13.9,-10.25 -24.35,-3.4 -21.91,14.36 -44.83,27.95 -66.32,42.85l-170.16 119.45 -61.32 47.81c-10.23,7.97 -19.5,16.88 -30.77,23.8 -5.85,3.59 -13.03,7.74 -16.95,13.47 -3.23,4.71 -8.36,7.49 -13.49,10.65 -7.75,4.77 -12.04,11.05 -19.14,16.54 -8.68,6.7 -53.78,51.13 -55.81,53.32l-30.37 33.64c-12.43,14.77 -25.43,29.55 -36.2,45.65 -5.56,8.31 -8.22,13.34 -11.73,23.95 -4.52,13.69 -5.59,15.91 -5.04,29.89l-5.91 47.3c-1.99,16.22 -3.25,36.71 -0.5,51.53 2.84,15.29 9.73,11.24 16.05,20.68 -5.44,-0.45 -2.8,-1.13 -8.54,-0.23 -4.04,0.64 -5.33,0.93 -8.25,2.33 1.24,5.33 5.25,9.49 7.37,14.68 4.29,10.54 -2.83,23.51 3.47,36.4 5.11,10.47 3.25,8.65 2.96,18.33 -0.15,4.95 11.39,24.49 14.18,29.59 3.69,6.77 12.09,24.14 20.3,24.82 0.89,-3.82 0.58,-3.36 3.15,-5.25 9.52,2.54 1.71,14.23 23.23,-3 43.59,-34.92 116.65,-90.02 161.01,-117.06l54.02 -34.12c39.73,-23.63 79.39,-47.87 120.26,-69.66l98.64 -53.51c3.27,-1.76 4.53,-2.82 8.03,-4.56 3.22,-1.61 5.2,-2.53 8.42,-4.17l16.22 -8.96c4.3,-2.6 13.49,-6.94 15.94,-10.29zm488.36 174.88c11.01,-8.8 17.55,-16.15 19.64,-22.14 2.09,-6 1.93,-10.94 -0.49,-14.84 -2.42,-3.9 -6.15,-6.78 -10.97,-8.61 -4.82,-1.83 -8.13,-3.13 -9.82,-3.88 -3.35,-1.59 -7.21,-1.65 -11.63,-0.39 -4.42,1.26 -11.94,4.57 -22.67,9.91 -3.66,1.96 -6.98,3.5 -10.12,4.78 -3.14,1.28 -5.03,1.83 -5.6,1.73 -1.8,-0.29 -2.76,2.1 -2.73,7.12 -0.85,3.36 -1.46,5.34 -1.91,5.74 -0.45,0.4 -1.42,0.05 -2.97,-1.24 -1.32,-2.2 -1.97,-3.82 -2.06,-4.88 -0.09,-1.05 1.04,-0.87 3.15,0.52 1.69,0.75 2.14,0.35 1.27,-1.31 -0.76,-2.11 -3.13,-2.5 -7.21,-1.18 -3.66,1.96 -5.65,3.34 -6.24,4.28 -0.59,0.94 0.76,1.16 4.06,0.66 2.48,-0.07 3.72,0.13 3.61,0.59 -0.25,1 -2.62,2.5 -7.23,4.49 -4.61,1.99 -10.9,4.18 -18.96,6.36 -2.85,1.52 -4.65,1.23 -5.41,-0.88 0.11,-0.45 1.09,-1.05 2.8,-1.81 1.72,-0.76 3.79,-1.56 6.23,-2.39 2.44,-0.83 4.72,-1.5 7.04,-1.87 2.32,-0.38 3.92,-0.21 5.05,0.45 1.24,0.2 1.35,-0.25 0.36,-1.45 -0.62,-2.66 -3.96,-2.92 -10.1,-0.9 -4.78,1.77 -10.88,3.62 -18.32,5.71 -7.45,2.09 -15.03,4.26 -22.75,6.5 -7.72,2.24 -14.76,4.11 -21.12,5.63 -6.36,1.51 -10.83,2.48 -13.45,3.1 -6.45,0.93 -16.6,2.58 -30.32,4.88 -13.71,2.3 -27.52,4.49 -41.5,6.45 -13.98,1.97 -26.62,3.69 -37.89,5.15 -11.28,1.47 -17.53,2.05 -18.77,1.85 -1.24,-0.2 -2.77,-0.17 -4.69,-0.01 -2.48,0.07 -6.27,0.2 -11.36,0.41 -4.28,-0.23 -8.48,-0.35 -12.54,-0.54 -4.06,-0.19 -6.72,0.13 -8.21,0.93 -1.13,-0.66 -1.76,-0.95 -2.17,-0.73 -0.41,0.22 -0.88,0.24 -1.44,0.14l-1.81 -0.3c0,0 -3.38,-0.08 -10.28,-0.17 -2.37,-0.39 -5.48,-0.61 -9.2,-0.75 -3.72,-0.14 -6.92,0 -9.51,0.52 -29.66,-3.81 -54.76,-7.54 -75.09,-11.15 -20.32,-3.61 -38.01,-6.97 -52.81,-10.15 -14.82,-3.09 -27.6,-6.41 -38.34,-9.87 -10.72,-3.55 -20.65,-7.45 -29.9,-11.7 -9.25,-4.26 -18.48,-9.08 -27.82,-14.39 -9.34,-5.31 -20.61,-11.32 -33.94,-18.04 -9.41,-5.04 -17.21,-4.33 -23.54,2.2 -6.33,6.53 -9.66,15.54 -10.08,27.02 -0.42,11.47 2.58,23.79 9.01,36.95 6.43,13.16 17.3,24.02 32.63,32.58 19.69,11.26 42.99,20.75 69.79,28.45 26.81,7.7 54.65,13.58 83.27,17.79 28.62,4.21 57.45,6.65 86.37,7.31 28.92,0.66 55.55,-0.28 80,-2.81 7.69,-0.73 15.06,-1.61 22.19,-2.43 7.13,-0.82 12,-1.54 14.62,-2.15 5.77,-0.57 8.73,-1.13 8.84,-1.58 -0.45,-0.55 1.76,-0.94 6.86,-1.15 1.81,0.29 6.13,-0.13 12.99,-1.28 6.86,-1.15 14.71,-2.51 23.55,-4.1 8.84,-1.58 17.71,-3.25 26.62,-5.1 8.91,-1.85 16.76,-3.69 23.46,-5.62 3.97,-0.87 9.39,-2.34 16.16,-4.55 6.77,-2.2 13.77,-4.37 20.92,-6.7 7.16,-2.33 13.7,-4.57 19.57,-6.92 5.87,-2.35 9.93,-4.05 12.1,-5.21 1.6,-1.25 5.49,-3.17 11.74,-5.65 6.25,-2.48 13.14,-5.14 20.77,-7.96 13.32,-5.86 23.58,-11.66 30.63,-17.32 7.05,-5.66 12.93,-10.37 17.63,-14.14zm-381.08 75.03c2.67,1.95 2.72,2.71 0.35,2.33 -1.69,-0.75 -3.24,-1.57 -4.59,-2.27 -1.35,-0.69 -1.39,-1.46 0.1,-2.25 2.17,-1.16 3.52,-0.47 4.14,2.19zm-23.26 -0.78c0.31,1.09 0.2,1.55 -0.36,1.46 -0.57,-0.09 -1.35,-0.69 -2.34,-1.9 -1.24,-0.2 -3.58,-0.68 -7.12,-1.54 -3.54,-0.86 -7.46,-1.6 -11.63,-2.28 -6.64,-1.09 -9.5,-1.84 -8.83,-2.2 0.68,-0.36 5.71,-0.3 14.97,0.18 4.85,0.79 9.37,1.44 13.61,1.85 4.24,0.41 7.08,0.31 8.57,-0.49 1.49,-0.8 3.45,-0.19 6.12,1.76 0.99,1.2 1.1,1.69 0.54,1.6 -0.56,-0.09 -2.7,-0.44 -6.31,-1.03 -5.52,-0.43 -7.98,0.49 -7.22,2.6zm-100.38 -22.48c3.61,0.59 6.13,1.76 7.56,3.51 0.45,0.55 -0.09,0.84 -1.63,0.87 -1.54,0.03 -3.25,-0.15 -5.05,-0.45 -4.85,-0.79 -7.39,-1.87 -7.65,-3.15 -0.27,-1.27 1.92,-1.58 6.77,-0.78zm15.84 7.89c-1.24,-0.2 -1.69,-0.75 -1.44,-1.75 0.11,-0.46 2.57,-0.43 7.49,0.09 4.91,0.52 10.84,1.68 17.94,3.31 10.25,1.68 16.6,3 19.19,3.9 2.59,0.9 2.86,1.7 0.8,2.4 -4.34,2.32 -8.39,2.13 -12.08,-0.46 -1.8,-0.29 -4.6,-0.85 -8.47,-1.76 -3.87,-0.92 -7.23,-1.56 -10.27,-2.06 -2.79,-1.5 -5.5,-2.41 -8.2,-2.86 -2.7,-0.44 -4.4,-0.72 -4.96,-0.81zm-30.63 -8.79c0.48,-1.91 1.52,-2.31 3.07,-1.01 1.81,0.29 2.52,1.17 2.16,2.62 -0.62,2.46 -1.63,2.76 -3.07,1.01l-2.15 -2.62zm-13.51 -5.99c1.12,0.66 2.18,1.11 3.42,1.32 1.24,0.2 2.3,0.66 3.42,1.32 0.87,1.66 -0.21,2.24 -3.25,1.74 -3.35,-1.59 -5.36,-2.49 -5.85,-2.85 -0.49,-0.37 0.21,-0.82 2.26,-1.52zm161.15 27.12c0.37,-1.46 2.44,-0.83 6.13,1.76 4.37,2.7 5.92,4 4.68,3.79 -1.49,0.8 -3.7,0.25 -6.67,-1.47 -2.97,-1.72 -4.38,-3.08 -4.13,-4.08zm46.88 3.88c3.61,0.59 3.98,1.41 1.28,2.39 -1.35,0.25 -3.43,0.1 -6.47,-0.4 -1.24,-0.2 -1.87,-0.02 -1.98,0.43 -0.25,1 -2.51,1.11 -6.67,0.42 -2.79,-1.5 -4,-2.26 -3.6,-2.48 0.41,-0.22 2.12,-0.5 5.39,-0.91 5.07,-0.12 9.02,0.06 12.06,0.55zm9.15 0.93c2.17,-1.16 4.94,-0.99 8.3,0.6 1.24,0.2 1.44,0.33 0.81,0.51 -0.63,0.18 -2.23,0.01 -4.6,-0.37 -2.48,0.07 -4.17,-0.21 -4.96,-0.81 -0.79,-0.6 -0.67,-0.59 0.45,0.07zm18.45 -2.47c-0.08,-2 1.22,-2.55 4.15,-1.59 2.79,1.5 2.6,3.17 -0.38,5.24 -1.49,0.8 -2.64,1.18 -3.61,1.3 -0.97,0.13 -2.07,0.32 -3.43,0.57 -1.13,-0.66 -0.65,-1.15 1.27,-1.31 2.17,-1.16 2.87,-2.56 2,-4.21zm29.75 1.08c7.58,-0.28 8.7,0.38 3.24,2.04 -4.9,2.23 -11.1,1.69 -18.39,-1.49 -1.24,-0.2 -1.62,-0.55 -1.17,-0.95 0.45,-0.4 1.26,-0.84 2.62,-1.09l2.7 0.44c0.56,0.09 1.83,0.21 3.7,0.23 1.87,0.02 4.26,0.32 7.3,0.82zm25.26 -3.44c3.49,1.05 4.21,1.92 2.16,2.63 -2.62,0.61 -4.98,0.7 -7.13,0.35 -2.14,-0.35 -2.97,-1.24 -2.61,-2.7 0,0 2.48,-0.07 7.58,-0.28zm-396.18 -73.89l1.8 0.29c1.8,0.29 2.52,1.17 2.15,2.62 -0.48,1.91 -1.45,2.03 -2.89,0.28 -1.55,-1.29 -2.27,-2.17 -2.15,-2.62l1.08 -0.58zm415.67 71.02c8.39,-1.18 12.86,-1.21 13.17,-0.12 0.31,1.09 -3.37,2.19 -11.19,3.46 -3.29,0.5 -6.3,0.77 -9.11,0.78 -2.82,0.01 -4.17,-0.21 -4.06,-0.66 0.25,-1 3.93,-2.1 11.19,-3.47zm38.08 -5.88c3.29,-0.5 6.32,-0.86 9.2,-1.14 2.89,-0.29 4.55,0.08 4.87,1.18 0,0 -1.51,0.41 -4.51,1.15 -3,0.74 -6.48,1.49 -10.38,2.09 -3.9,0.59 -7.71,1.29 -11.28,1.94 -3.56,0.65 -5.98,0.92 -7.22,0.71l0.18 -0.73c0.11,-0.46 0.07,-0.75 -0.27,-0.8 -0.34,-0.06 -0.38,-0.35 -0.27,-0.8 0.25,-1 0.77,-1.67 1.45,-2.04 0.68,-0.36 1.35,-0.25 1.8,0.29 1.24,0.2 3.27,0.06 6.23,-0.49 2.96,-0.56 6.34,-0.95 10.19,-1.36zm106.51 -27.99c-3.58,4.43 -4.96,4.77 -3.97,0.87 0.48,-1.91 1.29,-2.81 2.53,-2.61 2.06,-0.7 2.48,-0.07 1.44,1.75zm-146.02 -20.1c2.17,-1.16 2.32,-0.38 0.35,2.33 -1.72,1.71 -2.87,2.56 -3.44,2.47 -0.56,-0.09 -0.72,-0.87 -0.35,-2.33 0.48,-1.91 1.63,-2.76 3.44,-2.46zm113.17 -24.63c4.65,-1.23 8.48,-2.02 11.37,-2.3 2.88,-0.29 4.21,0.03 3.96,1.03 -0.11,0.45 -0.86,1.09 -2.35,1.89 -1.49,0.8 -2.73,1.07 -3.97,0.86 -3.61,-0.59 -5.7,0.3 -6.32,2.75 -0.11,0.46 -1.99,0.43 -5.59,-0.16 -3.29,0.5 -7.31,1.55 -12.09,3.32 -1.6,1.25 -3.71,2.14 -6.32,2.75 -2.61,0.61 -4.6,1.04 -5.95,1.3 -3.16,-0.04 -5.77,0.57 -7.94,1.73 -0.68,0.36 -4.72,1.5 -12.1,3.32 -5.89,1.02 -9.09,2.58 -9.57,4.49 -0.48,1.91 -1.75,3.21 -3.8,3.92 -2.17,1.16 -2.21,-0.08 0.01,-3.78 0.93,-1.36 1.41,-2.32 1.18,-2.84 -0.22,-0.51 -0.72,-0.4 -1.54,0.51 -2.28,1.61 -5.91,2.53 -11.01,2.74 -5.1,0.21 -7.39,-0.45 -7.03,-1.9 0.25,-1 1.04,-1.82 2.54,-2.61 1.24,0.2 4.13,-0.08 8.66,-0.85 4.54,-0.77 10.47,-1.98 17.78,-3.53 7.31,-1.55 15.3,-3.46 23.92,-5.55 8.62,-2.09 17.42,-4.44 26.18,-7.07zm84.68 -27.02l-8.49 3.91c-2.73,1.07 -5.55,2.02 -8.22,2.82 -2.66,0.79 -4.63,1.13 -5.87,0.93 -3.49,-1.04 -3.65,-1.83 -0.35,-2.33 1.49,-0.8 3.59,-1.68 6.32,-2.75 2.73,-1.06 5.51,-1.84 8.12,-2.45l8.48 -0.13zm-1128.59 203.12c-0.18,0.09 -0.48,-0.68 -0.95,-2.3 -0.28,-1.19 -0.38,-2.41 -0.24,-3.63 0.14,-1.22 0.49,-3.16 1.08,-5.82 0.73,-3.31 1.55,-6.37 2.46,-9.17 0.91,-2.8 1.68,-5.11 2.37,-6.89 0.06,-0.27 0.13,-0.49 0.25,-0.67 0.12,-0.18 0.2,-0.43 0.26,-0.7 0.18,-0.22 0.42,-0.58 0.66,-1.1 0.24,-0.5 0.29,-0.69 0.13,-0.6 0.14,-0.65 0.32,-1.1 0.51,-1.35 0.03,-0.12 0.09,-0.29 0.21,-0.48 0.12,-0.18 0.18,-0.33 0.21,-0.48 0.39,-0.46 0.83,-1.38 1.34,-2.73 0.51,-1.35 1.02,-2.59 1.56,-3.73 0.33,-0.89 0.91,-2.2 1.7,-3.91 0.8,-1.7 1.66,-3.58 2.6,-5.59 0.95,-2.04 1.95,-4.06 3.03,-6.12 1.09,-2.08 2.13,-4.05 3.09,-5.92 0.54,-1.13 1.09,-2.21 1.67,-3.29 0.57,-1.05 1.09,-1.95 1.54,-2.69 0.48,-0.86 0.94,-1.75 1.42,-2.61l0.2 0.04c0.12,0.03 0.23,0.03 0.32,-0.03 0.09,-0.06 0.2,-0.06 0.32,-0.03 1.07,0.24 1.27,-0.06 0.62,-0.91 -0.46,-0.39 -0.37,-0.79 0.27,-1.2 1.34,-1.66 1.98,-2.69 1.95,-3.12 0.06,-0.27 0.21,-0.37 0.49,-0.31 0.67,0.15 0.95,-0.15 0.82,-0.86 -0.15,-0.61 -0.1,-0.86 0.18,-0.8 0.43,-0.06 0.9,-0.64 1.44,-1.77 0.21,-0.95 0.39,-1.4 0.52,-1.38 0.4,0.09 0.7,-0.31 0.91,-1.26 0.14,-0.65 0.59,-1.12 1.35,-1.37l0.04 -0.2c0.03,-0.13 0.07,-0.22 0.17,-0.28 0.09,-0.03 0.15,-0.2 0.21,-0.48 -0.04,-0.43 0.13,-0.91 0.53,-1.45 0.41,-0.54 1.2,-1.64 2.41,-3.33 0.03,-0.12 0.14,-0.28 0.31,-0.45 0.17,-0.17 0.28,-0.33 0.31,-0.45 1.39,-1.91 2.16,-3.15 2.28,-3.67 0.06,-0.27 0.33,-0.55 0.82,-0.86l-0.2 -0.04c0.73,-0.13 1.02,-0.48 0.86,-1.06 -0.1,-0.15 -0.03,-0.45 0.2,-0.9 0.23,-0.45 0.53,-0.85 0.91,-1.26 0.38,-0.41 0.72,-0.78 1.08,-1.12 0.36,-0.34 0.66,-0.48 0.93,-0.42 0.34,-0.21 0.6,-0.83 0.84,-1.9 0.18,-0.8 0.39,-1.17 0.64,-1.11 0.65,0.14 0.86,-0.23 0.67,-1.11l0.7 -0.47c0.49,-0.31 0.79,-0.74 0.91,-1.26 0.64,-0.41 1.03,-0.9 1.15,-1.42 -0.06,-0.3 -0.01,-0.55 0.18,-0.8 0.19,-0.25 0.44,-0.45 0.77,-0.67 0.64,-0.4 1.08,-1.09 1.29,-2.01 0.15,-0.67 0.29,-0.98 0.42,-0.95 0.52,0.12 1.04,-0.32 1.55,-1.33 0.18,-0.25 0.3,-0.43 0.33,-0.55 0.03,-0.13 0.13,-0.26 0.29,-0.35 0.33,-0.21 0.74,-0.88 1.28,-2.02 0.45,-0.74 0.79,-1.08 1.06,-1.02 0.52,0.11 0.69,-0.27 0.46,-1.15l0.2 0.04c0.4,0.09 0.98,-0.28 1.7,-1.08l-0.04 0.2c0.39,-0.46 0.52,-0.82 0.44,-1.05 -0.08,-0.23 -0.36,-0.26 -0.82,-0.08l0.24 -0.16c0.03,-0.12 0.07,-0.19 0.14,-0.18 0.08,0.02 0.12,-0.05 0.15,-0.18 0.21,-0.37 0.39,-0.46 0.49,-0.31l0.2 0.04c0.77,0.3 1.62,-0.69 2.55,-2.99l-0.04 0.2 1.55 -1.33c0.15,-0.1 0.35,-0.26 0.53,-0.51 0.18,-0.25 0.29,-0.38 0.31,-0.46 0.02,-0.07 0.13,-0.21 0.31,-0.45 0.3,-0.77 1.07,-1.64 2.26,-2.63 1.19,-0.99 1.9,-1.38 2.15,-1.19l1.39 -1.57c0.46,-0.19 0.69,-0.27 0.69,-0.27 -0.06,0.27 0.01,0.42 0.21,0.46 0.2,0.04 0.45,-0.03 0.79,-0.24 0.46,-0.18 0.93,-0.08 1.39,0.31 0.46,0.39 1.3,0.71 2.5,0.97 1.17,0.39 2.69,1.43 4.54,3.1 1.85,1.67 3.35,3.38 4.49,5.18 0.52,0.82 0.97,1.76 1.36,2.81 0.39,1.05 0.64,1.95 0.77,2.68 0.32,1.74 0.38,3.12 0.23,4.13 -0.15,1.01 -0.36,1.49 -0.63,1.43 -0.67,-0.15 -1.16,0.16 -1.46,0.93 -0.42,0.61 -0.52,0.95 -0.34,1.07 0.18,0.12 0.43,0.07 0.76,-0.15l-0.2 -0.04c0.34,-0.21 0.46,-0.19 0.4,0.09 0,0 -0.24,0.15 -0.73,0.46 -0.33,0.21 -0.63,0.49 -0.92,0.84 -0.29,0.35 -0.46,0.66 -0.52,0.93 0.64,-0.41 1,-0.64 1.09,-0.7 0.09,-0.06 0.09,0.04 0.03,0.32 -0.12,0.52 -0.3,0.77 -0.57,0.71 -0.52,-0.12 -0.73,0.13 -0.58,0.71 0.1,0.15 0.06,0.3 -0.09,0.4 -0.8,-0.18 -1.07,0.1 -0.82,0.86 -0.12,0.52 -0.25,0.78 -0.38,0.75 -0.28,-0.06 -0.5,0.02 -0.69,0.27 -0.19,0.25 -0.19,0.51 0.02,0.84 0.1,0.15 0.01,0.42 -0.28,0.77 -0.29,0.35 -0.53,0.64 -0.72,0.89 -0.39,0.46 -0.7,0.81 -0.96,1.04 -0.26,0.23 -0.19,0.38 0.21,0.46 -0.03,0.12 -0.15,0.31 -0.33,0.55l-0.86 1.06 0.04 -0.2c-0.34,0.21 -0.54,0.43 -0.67,0.69 -0.13,0.26 -0.29,0.48 -0.47,0.73l-0.57 0.71c-0.03,0.12 -0.16,0.38 -0.38,0.75 -0.21,0.37 -0.43,0.66 -0.62,0.91 -0.18,0.25 -0.48,0.63 -0.88,1.16 -0.41,0.54 -0.72,0.99 -0.93,1.36 -0.33,0.21 -0.53,0.51 -0.62,0.91 -0.48,0.86 -0.83,1.28 -1.1,1.22 -0.67,-0.15 -0.87,0.14 -0.62,0.91 -0.11,0.52 -0.25,0.78 -0.38,0.75 -0.67,-0.15 -0.87,0.15 -0.62,0.91 -0.13,0.6 -0.27,0.88 -0.4,0.85 -0.79,-0.18 -1.06,0.08 -0.79,0.76 -0.03,0.13 0.01,0.29 0.11,0.44 -0.4,-0.09 -0.84,0.13 -1.29,0.65 -0.46,0.53 -0.65,0.93 -0.59,1.23 -0.67,0.56 -1.37,1.37 -2.11,2.45 -0.74,1.09 -1.07,1.85 -1.03,2.28 -0.25,-0.19 -0.47,-0.13 -0.66,0.17 -0.2,0.3 -0.35,0.65 -0.44,1.05 -0.45,0.74 -0.37,1.09 0.18,1.08 0.15,-0.1 0.03,0.01 -0.39,0.33 -0.41,0.33 -0.81,0.73 -1.2,1.2 -0.67,0.56 -1.17,1.18 -1.46,1.87 -0.29,0.72 -0.09,1 0.64,0.87 -0.34,0.21 -0.5,0.38 -0.53,0.51 -0.49,0.31 -0.85,0.44 -1.13,0.38 -0.52,-0.11 -0.91,-0.02 -1.11,0.28 -0.2,0.32 -0.55,1.18 -1,2.6 -0.21,0.95 -0.49,1.64 -0.88,2.1l0.04 -0.2c-0.16,0.12 -0.26,0.36 -0.27,0.78 -0.01,0.42 0.01,0.78 0.08,1.06 -0.09,0.4 -0.38,0.75 -0.86,1.06 -0.34,0.21 -0.64,0.54 -0.94,0.94 -0.3,0.43 -0.5,0.86 -0.59,1.25 -0.14,0.65 -0.74,1.43 -1.77,2.32 -0.97,0.62 -1.62,1.65 -1.95,3.12 -0.14,0.65 -0.45,1.21 -0.89,1.68 -0.44,0.45 -0.81,0.71 -1.12,0.8 -0.3,0.06 -0.2,0.29 0.27,0.69 -0.15,0.1 -0.26,0.57 -0.31,1.4l-0.71 -0.58c-0.92,-0.2 -1.32,-0.03 -1.17,0.57 0.18,0.46 -0.14,1.22 -0.93,2.3 -0.54,1.13 -0.6,1.75 -0.2,1.84 0.4,0.09 0.81,-0.24 1.26,-0.97 0.42,-0.61 0.53,-0.62 0.32,-0.04 -0.21,0.58 -0.46,1.26 -0.76,2.03 -0.45,0.73 -0.82,1.33 -1.14,1.83 -0.32,0.48 -0.58,0.63 -0.83,0.45 -0.34,-0.36 -0.84,-0.32 -1.48,0.09l0.11 0.44c0.73,-0.13 0.85,0.4 0.39,1.55 -0.46,1.15 -1.64,3.53 -3.57,7.15 -1.53,3.13 -3.13,6.44 -4.81,9.9 -1.68,3.47 -3.28,6.9 -4.8,10.32 -1.52,3.43 -2.93,6.74 -4.2,9.96 -1.26,3.2 -2.29,5.97 -3.1,8.3 -1.5,4.27 -2.46,6.95 -2.83,8.05 -0.37,1.09 -0.7,1.62 -0.97,1.56 -0.8,-0.18 -1.07,0.1 -0.82,0.86 -0.21,0.35 -1.33,0.36 -3.35,0.04 -0.8,-0.18 -1.52,-0.34 -2.17,-0.48 -0.67,-0.15 -0.98,-0.27 -0.96,-0.37 0.11,-0.5 -0.31,-0.85 -1.23,-1.05 -0.55,-0.12 -1.01,-0.51 -1.41,-1.15l-0.05 0.2c-0.06,-0.3 -0.21,-0.59 -0.42,-0.93 -0.21,-0.34 -0.43,-0.51 -0.71,-0.57l-1.59 -0.35c-0.12,-0.03 -0.01,-0.29 0.38,-0.75 0.55,-0.58 0.97,-0.94 1.28,-1.07 0.32,-0.14 -0.33,-0.05 -1.95,0.3 -0.46,0.19 -1.2,-0.27 -2.21,-1.33 -1.02,-1.06 -1.88,-2.46 -2.61,-4.13 -1.24,-1.95 -1.83,-3.07 -1.77,-3.32l-0.51 -0.53zm69.7 -82.39l0.24 -0.15c-0.03,0.13 -0.2,0.3 -0.53,0.51l-0.24 0.16c-0.12,-0.03 -0.18,-0.12 -0.15,-0.24 0.34,-0.21 0.56,-0.29 0.68,-0.27zm-3.12 -39.56c-0.52,-0.12 -0.87,0.14 -1.02,0.82 -0.18,0.8 -0.14,1.22 0.13,1.29 0.27,0.06 0.61,-0.28 1.06,-1.02 0.15,-0.67 0.1,-1.02 -0.18,-1.08zm-43.16 123.75c0.3,-0.77 0.26,-1.19 -0.13,-1.28 -0.52,-0.11 -0.89,0.22 -1.06,1.02l-0.18 0.8c-0.03,0.13 0.03,0.22 0.15,0.24 0.27,0.06 0.67,-0.19 1.22,-0.78zm0.55 -1.55c0.33,-0.21 0.43,-0.66 0.31,-1.39 -0.32,-1.04 -0.64,-1.48 -0.97,-1.26 -0.03,0.13 -0.07,0.33 -0.13,0.6 -0.06,0.27 -0.04,0.54 0.02,0.84 0.04,1.13 0.29,1.53 0.78,1.22zm2.67 -7.56c0.48,-1.57 0.53,-2.39 0.13,-2.48 -0.27,-0.06 -0.52,0.09 -0.73,0.46 -0.21,0.37 -0.38,0.75 -0.46,1.15 -0.29,1.32 -0.66,2.36 -1.11,3.1 0.8,0.18 1.51,-0.58 2.17,-2.24zm1.35 -3.25c0.33,-0.21 0.55,-0.48 0.7,-0.79 0.14,-0.31 0.24,-0.6 0.3,-0.87 -0.21,-0.33 -0.58,-0.34 -1.14,-0.04 -0.56,0.29 -0.91,0.77 -1.05,1.44 -0.32,1.47 0.07,1.56 1.2,0.27zm0.87 -2.76c0.52,0.12 0.86,-0.1 0.98,-0.64 0.12,-0.52 -0.1,-0.86 -0.62,-0.97l-0.49 0.33c-0.58,0.71 -0.54,1.14 0.13,1.29zm2.78 -5c0.42,-0.61 0.34,-0.97 -0.18,-1.09 -0.52,-0.12 -0.88,0.22 -1.06,1.02 0.31,0.49 0.71,0.57 1.19,0.26l0.05 -0.2zm22.95 -88.32c0.59,1.1 1.04,0.99 1.33,-0.33 0.21,-0.92 -0.15,-1.21 -1.06,-0.87 -0.33,0.21 -0.41,0.54 -0.22,1l-0.04 0.2zm-11.72 67.83c0.24,-0.49 0.1,-0.81 -0.42,-0.93 -0.28,-0.06 -0.52,-0.01 -0.76,0.14 -0.24,0.15 -0.28,0.46 -0.1,0.92 -0.03,0.12 0.15,0.24 0.55,0.33l0.73 -0.47zm1.19 -1.61c0.33,-0.21 0.41,-0.43 0.25,-0.67 -0.15,-0.24 -0.35,-0.39 -0.63,-0.46 -0.52,-0.12 -0.86,0.1 -0.97,0.62l-0.13 0.6c-0.03,0.12 0.03,0.21 0.16,0.24 0.52,0.11 0.98,-0.07 1.37,-0.53l-0.04 0.2zm2.5 -4.67c0.12,-0.52 -0.27,-0.69 -1.15,-0.46 -0.33,0.21 -0.53,0.51 -0.62,0.91 -0.06,0.28 -0,0.49 0.17,0.67 0.17,0.17 0.41,0.17 0.74,-0.05l-0.2 -0.04c0.55,-0.01 0.91,-0.34 1.06,-1.02zm16.03 -73.14c-0.73,0.13 -0.9,0.64 -0.55,1.55 0.19,0.46 0.51,0.53 0.99,0.22l-0.2 -0.04c0.43,-0.03 0.62,-0.57 0.55,-1.55 -0.34,-0.36 -0.66,-0.43 -1,-0.22l0.2 0.04zm-2.21 2.44c-0.39,0.46 -0.25,0.78 0.42,0.93 0.8,0.18 1.38,0.02 1.77,-0.44l-0.04 0.2c0.34,-0.22 0.38,-0.44 0.15,-0.7 -0.23,-0.26 -0.45,-0.42 -0.73,-0.48 -0.52,-0.11 -1.04,-0.02 -1.53,0.29l-0.05 0.2zm0 1.88c-0.31,-0.49 -0.62,-0.53 -0.92,-0.1 -0.31,0.43 -0.4,0.98 -0.28,1.72 0.41,0.64 0.78,0.59 1.09,-0.18 0.18,-0.8 0.21,-1.29 0.11,-1.44zm-1.84 1.68c-0.77,-0.3 -1.2,-0.27 -1.29,0.13 -0.11,0.52 0.22,0.89 1.02,1.06l0.8 0.18c0.13,0.03 0.22,-0.03 0.24,-0.15 0.06,-0.28 -0.01,-0.45 -0.19,-0.56 -0.18,-0.12 -0.37,-0.32 -0.59,-0.65zm-2.92 1.86c-0.97,0.62 -0.79,1.08 0.53,1.37 1.47,0.32 1.88,-0 1.26,-0.98 -0.21,-0.34 -0.41,-0.51 -0.61,-0.55 -0.2,-0.04 -0.6,-0 -1.18,0.15zm-1.57 4.25c-0.62,-0.97 -1.09,-0.74 -1.41,0.73 -0.29,1.32 0.05,1.68 1.02,1.06 0.34,-0.21 0.53,-0.4 0.65,-0.59 0.12,-0.18 0.03,-0.6 -0.26,-1.21zm-1.92 2.08c-0.92,-0.2 -1.48,0.09 -1.66,0.88 -0.2,0.92 0.29,1.19 1.51,0.75l-0.2 -0.05c0.4,0.09 0.75,0.04 1.09,-0.18l0.49 -0.31c0.12,-0.52 -0.3,-0.9 -1.22,-1.1zm-4.58 6.3c-0.4,-0.09 -0.91,0.19 -1.54,0.81 -0.63,0.62 -1.01,1.26 -1.16,1.94 0.88,-0.22 1.4,-0.32 1.53,-0.29 0.37,0.22 0.55,-0.01 0.57,-0.71 0.06,-0.28 0.27,-0.28 0.64,-0.07 0.71,0.58 0.97,0.35 0.77,-0.66l0.05 -0.2 0.49 -0.31c0.7,-0.68 0.74,-1.09 0.07,-1.24 -0.27,-0.06 -0.37,-0.21 -0.31,-0.49 0.06,-0.27 0.19,-0.25 0.4,0.09 0.21,0.34 0.41,0.41 0.58,0.24 0.17,-0.17 0.23,-0.47 0.2,-0.9 -0.19,-0.46 -0.08,-0.57 0.29,-0.36 0.74,0.45 1.19,0.27 1.37,-0.53 0.06,-0.28 0.01,-0.55 -0.12,-0.86 -0.14,-0.32 -0.41,-0.51 -0.81,-0.6 -0.67,-0.15 -1.33,0.23 -2.03,1.12 -0.69,0.89 -1.01,1.84 -0.94,2.82l-0.04 0.2zm-5.62 8.57c0.42,-0.61 0.54,-1.03 0.39,-1.27 -0.15,-0.24 -0.38,-0.27 -0.72,-0.06 -0.34,0.21 -0.67,1 -1.05,2.38 -0.38,1.38 -0.51,2.42 -0.39,3.15l0.4 0.09c0.24,-0.49 0.85,-1.48 1.8,-2.94 0.95,-1.46 2.02,-2.98 3.2,-4.52l-0.04 0.2c1.21,-1.11 1.44,-1.77 0.64,-1.95 -0.12,-0.03 -0.53,0.17 -1.17,0.57 0.2,-0.92 -0.2,-1.01 -1.2,-0.27 -0.85,0.65 -1.29,1.23 -1.32,1.72 -0.03,0.49 0.24,0.68 0.83,0.52 -0.06,0.25 -0.19,0.48 -0.36,0.7 -0.51,1.01 -0.91,1.76 -1.23,2.24 -0.31,0.48 -0.24,0.29 0.23,-0.58zm-31.03 84.23c0.57,1.8 1.1,1.63 1.57,-0.49 0.33,-1.47 0.06,-1.79 -0.82,-1.02 -0.64,0.41 -0.9,0.85 -0.71,1.3l-0.05 0.2zm0.69 -4.03c-0.27,1.2 -0.06,1.58 0.57,1.18 0.34,-0.21 0.43,-0.66 0.31,-1.39l-0.88 0.22zm-0.13 15.65c0.33,-0.21 0.25,-0.78 -0.24,-1.72 -0.67,0.55 -0.88,1.03 -0.63,1.43 0.25,0.39 0.54,0.51 0.87,0.3zm26.14 -89.49c-0.39,0.46 -0.3,0.77 0.22,0.88 0.52,0.12 0.86,-0.1 0.97,-0.62 0.03,-0.13 0.03,-0.23 -0.03,-0.32 -0.06,-0.09 -0.06,-0.2 -0.03,-0.32l0.04 -0.2c-0.52,-0.12 -0.93,0.08 -1.17,0.58zm-2.48 3.63c-0.03,0.13 -0.13,0.26 -0.29,0.35 -0.42,0.61 -0.34,0.97 0.18,1.09 0.52,0.11 0.98,-0.28 1.31,-1.18 0.03,-0.12 0.09,-0.27 0.19,-0.37 0.1,-0.11 0.16,-0.25 0.19,-0.38l0.09 -0.4c-0.52,-0.12 -1.07,0.1 -1.61,0.69l-0.05 0.2zm-10.38 14.62c-1.27,1.23 -1.86,1.91 -1.8,2 0.04,0.06 0.76,-0.15 2.14,-0.68l-0.2 -0.04c1.01,-0.2 1.75,-0.73 2.23,-1.6 0.03,-0.15 0.08,-0.27 0.19,-0.38 0.08,-0.14 0.16,-0.25 0.19,-0.38 0.06,-0.27 0.15,-0.46 0.33,-0.55 0.06,-0.28 0.4,-0.62 1.06,-1.02 0.19,-0.25 0.52,-0.69 1.03,-1.34 0.49,-0.68 0.97,-1.43 1.45,-2.29 0.46,-0.89 0.9,-1.68 1.27,-2.44 0.38,-0.75 0.61,-1.33 0.7,-1.73 -1.12,0.59 -1.76,1.33 -1.97,2.28 -0.06,0.25 -0.35,0.65 -0.88,1.16 -0.53,0.51 -1.05,0.97 -1.57,1.43 -0.64,0.28 -1.18,0.62 -1.7,1.08 -0.51,0.43 -0.68,0.82 -0.46,1.15 -0.06,0.25 -0.17,0.43 -0.33,0.55l0.2 0.05c-0.73,0.1 -0.97,0.62 -0.75,1.5 -0.03,0.13 -0.13,0.23 -0.29,0.36 -0.18,0.09 -0.32,0.24 -0.41,0.43 -0.12,0.18 -0.25,0.31 -0.41,0.43zm-1.08 -2.54c-0.42,0.61 -0.55,1.05 -0.41,1.37 0.14,0.32 0.45,0.31 0.94,0 0.49,-0.31 0.69,-0.89 0.6,-1.75 -0.1,-0.86 -0.16,-1.26 -0.25,-1.21 -0.09,0.06 -0.36,0.57 -0.87,1.58zm-6.17 17.44c-0.73,0.12 -1.29,0.73 -1.66,1.83 -0.37,1.09 -0.25,1.72 0.42,1.87 0.52,0.12 0.78,-0.33 0.71,-1.31 -0.1,-0.86 0.28,-1.27 1.11,-1.22 0.61,-0.28 0.88,-0.77 0.75,-1.5 0.12,-0.52 0.25,-0.78 0.38,-0.76 0.52,0.12 0.79,-0.37 0.75,-1.5 0.12,-0.52 0.25,-0.78 0.38,-0.75 0.4,0.09 0.7,-0.34 0.91,-1.26 0,0 0.06,-0.28 0.18,-0.8 0.52,0.11 0.85,-0.1 0.97,-0.62 0.15,-0.67 0.28,-1.16 0.43,-1.47 0.15,-0.31 0.41,-0.77 0.83,-1.38 2,-2.77 2.31,-4.16 0.93,-4.18 -0.76,0.25 -1.2,0.7 -1.35,1.37 -0.15,0.67 -0.34,0.97 -0.62,0.91 -0.67,-0.15 -0.89,0.22 -0.66,1.11 -0.19,0.25 -0.41,0.54 -0.62,0.91 -0.18,0.25 -0.36,0.57 -0.54,1.03 -0.18,0.45 -0.36,0.78 -0.54,1.03 -0.51,1.01 -0.87,1.69 -1.08,2.06l-0.67 1.11c-0.06,0.27 -0.3,0.77 -0.75,1.5l0.04 -0.2c-0.88,0.77 -0.86,1.4 0,1.88l-0.2 -0.04c0.1,0.15 0.07,0.3 -0.09,0.4zm-6.48 13.4c-0.15,0.67 -0.34,1.18 -0.55,1.55 -0.69,1.81 -1.11,3.23 -1.27,4.32 -0.16,1.08 -0.07,1.37 0.32,0.9 0.49,-0.31 1.22,-1.74 2.21,-4.31l2.06 -4.56c0.06,-0.27 0.12,-0.42 0.21,-0.48 0.09,-0.06 0.14,-0.15 0.17,-0.27 0.2,-0.92 0.49,-1.64 0.88,-2.1 0.06,-0.27 -0.14,-0.66 -0.57,-1.17 -0.64,-0.27 -1,-0.33 -1.12,-0.14 -0.12,0.18 -0.28,0.8 -0.52,1.87 0.04,0.43 -0.09,0.89 -0.41,1.37 -0.32,0.48 -0.58,0.84 -0.76,1.08 -1.25,0.56 -1.39,0.94 -0.46,1.15l-0.18 0.8zm-4.62 12.35c-0.21,0.37 -0.42,0.82 -0.61,1.33 -0.19,0.51 -0.23,0.91 -0.17,1.22 0.07,0.98 0.16,1.39 0.35,1.23 0.17,-0.17 0.5,-0.83 1.01,-1.97l0.88 -2.31c0.06,-0.27 0.16,-0.59 0.32,-0.97 0.16,-0.38 0.26,-0.7 0.32,-0.97 0.27,-0.65 0.46,-1.26 0.52,-1.87 0.06,-0.61 -0.02,-0.94 -0.27,-1 -0.47,-0.1 -0.88,0.56 -1.21,2.03 -0.26,1.19 -0.64,2.29 -1.15,3.3zm-2.37 5.74c-0.45,0.74 -0.81,1.78 -1.11,3.1 -0.29,1.32 -0.57,2.69 -0.81,4.1 -0.23,1.41 -0.35,2.64 -0.3,3.7 0.05,1.06 0.19,1.61 0.46,1.67 0.13,0.03 0.42,-0.61 0.84,-1.9 0.42,-1.29 0.86,-2.94 1.31,-4.94 0.95,-3.68 1.37,-6.05 1.25,-7.04 -0.12,-0.99 -0.68,-0.57 -1.65,1.31zm-74.82 -69.77c-0.2,-0.01 -0.07,-0.83 0.33,-2.47 0.35,-1.17 0.88,-2.28 1.62,-3.26 0.73,-0.99 2.01,-2.48 3.85,-4.49 2.3,-2.5 4.54,-4.73 6.73,-6.7 2.19,-1.97 4.02,-3.58 5.5,-4.78 0.19,-0.21 0.37,-0.36 0.56,-0.46 0.19,-0.1 0.39,-0.27 0.58,-0.48 0.27,-0.1 0.65,-0.3 1.13,-0.62 0.46,-0.31 0.59,-0.46 0.41,-0.45 0.45,-0.49 0.83,-0.79 1.12,-0.91 0.09,-0.09 0.23,-0.21 0.42,-0.31 0.19,-0.1 0.32,-0.19 0.42,-0.31 0.57,-0.2 1.41,-0.78 2.53,-1.69 1.12,-0.91 2.18,-1.73 3.22,-2.45 0.73,-0.61 1.89,-1.45 3.43,-2.52 1.54,-1.08 3.23,-2.26 5.05,-3.53 1.84,-1.29 3.72,-2.54 5.69,-3.77 1.99,-1.26 3.87,-2.43 5.65,-3.57 1.04,-0.71 2.05,-1.37 3.09,-2.01 1.02,-0.62 1.92,-1.14 2.68,-1.55 0.84,-0.51 1.69,-1.05 2.54,-1.55l0.15 0.14c0.09,0.09 0.19,0.14 0.29,0.13 0.11,-0 0.2,0.05 0.29,0.13 0.81,0.74 1.12,0.58 0.99,-0.48 -0.2,-0.57 0.07,-0.87 0.83,-0.9 1.99,-0.77 3.07,-1.34 3.25,-1.72 0.19,-0.21 0.37,-0.21 0.58,-0.02 0.51,0.47 0.9,0.34 1.14,-0.34 0.17,-0.6 0.35,-0.79 0.55,-0.6 0.4,0.16 1.1,-0.1 2.13,-0.81 0.66,-0.71 1.04,-1.02 1.13,-0.93 0.3,0.28 0.76,0.08 1.42,-0.63 0.45,-0.49 1.07,-0.68 1.85,-0.51l0.14 -0.15c0.09,-0.09 0.17,-0.15 0.28,-0.15 0.09,0.01 0.23,-0.1 0.42,-0.31 0.18,-0.38 0.56,-0.73 1.19,-0.99 0.62,-0.26 1.86,-0.82 3.76,-1.67 0.08,-0.09 0.26,-0.17 0.49,-0.24 0.23,-0.06 0.41,-0.14 0.5,-0.24 2.16,-0.96 3.45,-1.64 3.81,-2.03 0.19,-0.21 0.56,-0.31 1.14,-0.34l-0.15 -0.14c0.7,0.26 1.12,0.1 1.28,-0.49 -0.01,-0.18 0.2,-0.41 0.62,-0.68 0.42,-0.27 0.88,-0.47 1.42,-0.64 0.53,-0.17 1.02,-0.31 1.5,-0.42 0.48,-0.11 0.81,-0.09 1.01,0.1 0.4,-0.02 0.94,-0.42 1.68,-1.22 0.55,-0.6 0.92,-0.82 1.11,-0.64 0.49,0.45 0.86,0.24 1.13,-0.62l0.84 -0.05c0.57,-0.02 1.05,-0.24 1.42,-0.64 0.76,-0.03 1.34,-0.26 1.7,-0.65 0.1,-0.29 0.27,-0.48 0.55,-0.6 0.28,-0.12 0.61,-0.17 1,-0.19 0.76,-0.03 1.48,-0.4 2.12,-1.1 0.47,-0.5 0.75,-0.7 0.84,-0.61 0.39,0.36 1.06,0.24 2.01,-0.37 0.28,-0.12 0.48,-0.22 0.56,-0.31 0.09,-0.09 0.25,-0.15 0.43,-0.16 0.4,-0.02 1.08,-0.39 2.12,-1.1 0.76,-0.41 1.22,-0.54 1.43,-0.35 0.39,0.36 0.73,0.11 0.98,-0.76l0.15 0.14c0.3,0.28 0.99,0.25 2.02,-0.08l-0.14 0.15c0.57,-0.2 0.87,-0.45 0.91,-0.69 0.04,-0.24 -0.18,-0.41 -0.67,-0.48l0.29 -0.01c0.08,-0.09 0.15,-0.13 0.21,-0.08 0.06,0.05 0.13,0.01 0.22,-0.08 0.37,-0.21 0.57,-0.2 0.57,-0.02l0.15 0.14c0.51,0.64 1.74,0.22 3.7,-1.31l-0.14 0.15 2.01 -0.37c0.18,-0.01 0.43,-0.05 0.71,-0.17 0.28,-0.12 0.44,-0.18 0.49,-0.24 0.05,-0.06 0.21,-0.12 0.5,-0.23 0.65,-0.51 1.75,-0.89 3.27,-1.15 1.53,-0.26 2.34,-0.24 2.46,0.04l1.99 -0.66c0.49,0.07 0.73,0.11 0.73,0.11 -0.19,0.21 -0.2,0.37 -0.05,0.51 0.15,0.14 0.4,0.2 0.8,0.18 0.49,0.07 0.85,0.4 1.05,0.97 0.2,0.57 0.77,1.27 1.67,2.1 0.81,0.92 1.61,2.59 2.37,4.95 0.76,2.37 1.2,4.61 1.29,6.73 0.04,0.97 -0.04,2.01 -0.23,3.11 -0.19,1.11 -0.42,2.01 -0.68,2.7 -0.6,1.67 -1.23,2.89 -1.87,3.69 -0.63,0.8 -1.06,1.11 -1.26,0.92 -0.51,-0.47 -1.08,-0.45 -1.73,0.07 -0.67,0.32 -0.93,0.56 -0.83,0.76 0.1,0.19 0.34,0.28 0.73,0.26l-0.15 -0.14c0.39,-0.02 0.49,0.07 0.3,0.28 0,0 -0.29,0.01 -0.86,0.03 -0.4,0.02 -0.79,0.11 -1.22,0.27 -0.43,0.16 -0.73,0.34 -0.91,0.54 0.75,-0.03 1.19,-0.05 1.3,-0.05 0.11,-0.01 0.06,0.09 -0.13,0.29 -0.36,0.39 -0.65,0.51 -0.85,0.32 -0.4,-0.36 -0.7,-0.26 -0.85,0.32 0.01,0.18 -0.1,0.29 -0.27,0.3 -0.6,-0.55 -0.98,-0.45 -1.14,0.34 -0.36,0.39 -0.61,0.55 -0.7,0.46 -0.21,-0.19 -0.44,-0.23 -0.73,-0.11 -0.28,0.12 -0.42,0.34 -0.41,0.74 0.01,0.18 -0.2,0.37 -0.63,0.53 -0.43,0.16 -0.78,0.28 -1.07,0.41 -0.57,0.2 -1.01,0.35 -1.35,0.42 -0.34,0.07 -0.35,0.23 -0.05,0.51 -0.09,0.09 -0.28,0.19 -0.56,0.31l-1.28 0.49 0.14 -0.15c-0.4,0.02 -0.68,0.1 -0.93,0.25 -0.25,0.15 -0.5,0.27 -0.78,0.39l-0.85 0.32c-0.08,0.09 -0.33,0.25 -0.7,0.46 -0.37,0.21 -0.71,0.35 -0.99,0.47 -0.28,0.12 -0.73,0.3 -1.35,0.56 -0.62,0.26 -1.12,0.5 -1.49,0.71 -0.4,0.02 -0.72,0.17 -0.99,0.47 -0.85,0.51 -1.36,0.69 -1.57,0.5 -0.51,-0.47 -0.82,-0.31 -0.99,0.47 -0.36,0.39 -0.61,0.55 -0.7,0.46 -0.51,-0.47 -0.82,-0.31 -0.99,0.47 -0.42,0.45 -0.68,0.62 -0.77,0.54 -0.6,-0.55 -0.95,-0.46 -1.07,0.26 -0.09,0.09 -0.13,0.26 -0.13,0.44 -0.3,-0.28 -0.79,-0.31 -1.45,-0.08 -0.66,0.23 -1.03,0.47 -1.12,0.77 -0.86,0.15 -1.87,0.49 -3.06,1.06 -1.18,0.57 -1.85,1.07 -2.03,1.46 -0.12,-0.29 -0.34,-0.35 -0.66,-0.19 -0.32,0.16 -0.63,0.39 -0.91,0.69 -0.76,0.41 -0.87,0.76 -0.39,1.03 0.18,-0.01 0.02,0.02 -0.5,0.09 -0.52,0.08 -1.07,0.23 -1.64,0.43 -0.86,0.14 -1.6,0.43 -2.2,0.89 -0.61,0.47 -0.58,0.82 0.12,1.08 -0.4,0.01 -0.63,0.08 -0.72,0.17 -0.58,0.02 -0.96,-0.05 -1.16,-0.24 -0.39,-0.36 -0.78,-0.47 -1.1,-0.31 -0.33,0.18 -1.07,0.75 -2.17,1.75 -0.66,0.71 -1.25,1.17 -1.82,1.37l0.14 -0.15c-0.2,0.03 -0.41,0.18 -0.63,0.53 -0.22,0.35 -0.39,0.68 -0.47,0.96 -0.28,0.3 -0.7,0.46 -1.28,0.49 -0.4,0.01 -0.82,0.14 -1.29,0.34 -0.48,0.22 -0.86,0.49 -1.14,0.79 -0.45,0.49 -1.35,0.87 -2.7,1.12 -1.16,0.05 -2.23,0.62 -3.25,1.72 -0.45,0.49 -0.99,0.82 -1.62,1 -0.61,0.17 -1.06,0.21 -1.37,0.13 -0.29,-0.1 -0.32,0.16 -0.11,0.73 -0.18,0.01 -0.51,0.37 -0.97,1.05l-0.33 -0.85c-0.69,-0.64 -1.13,-0.69 -1.3,-0.09 -0.07,0.49 -0.74,0.99 -1.96,1.52 -1.04,0.71 -1.39,1.21 -1.09,1.49 0.3,0.28 0.82,0.2 1.58,-0.21 0.67,-0.32 0.77,-0.27 0.29,0.13 -0.47,0.4 -1.03,0.85 -1.68,1.37 -0.76,0.41 -1.38,0.74 -1.91,1.01 -0.51,0.26 -0.82,0.25 -0.94,-0.03 -0.11,-0.48 -0.57,-0.7 -1.33,-0.67l-0.13 0.44c0.7,0.26 0.54,0.77 -0.44,1.53 -0.98,0.76 -3.19,2.23 -6.68,4.39 -2.9,1.94 -5.94,4 -9.13,6.15 -3.2,2.15 -6.3,4.32 -9.33,6.52 -3.03,2.2 -5.92,4.36 -8.63,6.51 -2.69,2.13 -4.98,4.01 -6.84,5.62 -3.43,2.94 -5.61,4.78 -6.48,5.54 -0.87,0.76 -1.42,1.05 -1.63,0.86 -0.6,-0.55 -0.97,-0.45 -1.14,0.33 -0.35,0.2 -1.33,-0.36 -2.92,-1.65 -0.6,-0.55 -1.14,-1.05 -1.63,-1.5 -0.51,-0.47 -0.72,-0.73 -0.65,-0.8 0.34,-0.38 0.16,-0.89 -0.53,-1.53 -0.41,-0.38 -0.62,-0.95 -0.65,-1.71l-0.14 0.15c0.1,-0.29 0.12,-0.62 0.1,-1.02 -0.02,-0.4 -0.12,-0.66 -0.33,-0.85l-1.2 -1.1c-0.09,-0.09 0.14,-0.26 0.7,-0.46 0.77,-0.23 1.31,-0.32 1.65,-0.28 0.35,0.04 -0.26,-0.21 -1.83,-0.72 -0.49,-0.07 -0.9,-0.83 -1.25,-2.26 -0.35,-1.43 -0.4,-3.07 -0.18,-4.88 -0.1,-2.31 -0.04,-3.57 0.13,-3.76l-0.17 -0.71zm101.63 -36.29l0.29 -0.01c-0.09,0.09 -0.32,0.16 -0.72,0.17l-0.28 0.01c-0.1,-0.09 -0.1,-0.2 -0.01,-0.29 0.39,-0.02 0.63,0.03 0.73,0.11zm17.15 -35.79c-0.4,-0.36 -0.83,-0.31 -1.29,0.2 -0.55,0.6 -0.73,0.99 -0.53,1.18 0.21,0.19 0.67,0.06 1.43,-0.35 0.47,-0.5 0.6,-0.84 0.39,-1.03zm-99.42 85.4c0.65,-0.51 0.83,-0.9 0.53,-1.18 -0.39,-0.36 -0.88,-0.25 -1.43,0.35l-0.55 0.6c-0.09,0.09 -0.08,0.2 0.01,0.29 0.21,0.19 0.68,0.17 1.44,-0.06zm1.26 -1.06c0.4,-0.02 0.71,-0.35 0.97,-1.05 0.25,-1.06 0.19,-1.6 -0.21,-1.58 -0.09,0.1 -0.23,0.25 -0.42,0.45 -0.19,0.21 -0.3,0.45 -0.4,0.74 -0.53,1 -0.51,1.47 0.06,1.44zm6.1 -5.2c1.2,-1.11 1.66,-1.8 1.36,-2.08 -0.21,-0.19 -0.49,-0.18 -0.86,0.04 -0.37,0.21 -0.7,0.46 -0.98,0.76 -0.92,0.99 -1.75,1.71 -2.51,2.13 0.6,0.55 1.6,0.26 3,-0.85zm2.8 -2.14c0.4,-0.02 0.72,-0.14 1,-0.33 0.28,-0.19 0.51,-0.4 0.7,-0.61 -0.02,-0.39 -0.33,-0.58 -0.96,-0.61 -0.63,-0.03 -1.16,0.21 -1.63,0.71 -1.02,1.11 -0.72,1.38 0.9,0.83zm2.14 -1.95c0.39,0.36 0.79,0.34 1.17,-0.07 0.36,-0.39 0.35,-0.79 -0.05,-1.15l-0.59 0.04c-0.85,0.33 -1.04,0.71 -0.53,1.18zm4.92 -2.93c0.67,-0.32 0.78,-0.66 0.39,-1.03 -0.39,-0.36 -0.88,-0.25 -1.43,0.35 0.02,0.57 0.32,0.85 0.9,0.83l0.14 -0.15zm64.17 -64.88c-0.04,1.25 0.4,1.37 1.32,0.38 0.64,-0.7 0.48,-1.12 -0.49,-1.28 -0.39,0.02 -0.62,0.26 -0.69,0.75l-0.14 0.15zm-44.17 52.79c0.46,-0.31 0.5,-0.65 0.1,-1.01 -0.21,-0.19 -0.44,-0.27 -0.73,-0.26 -0.29,0.01 -0.48,0.25 -0.55,0.74 -0.09,0.09 0.01,0.29 0.31,0.57l0.86 -0.04zm1.84 -0.8c0.39,-0.02 0.57,-0.17 0.56,-0.46 -0.01,-0.29 -0.11,-0.52 -0.32,-0.71 -0.39,-0.36 -0.79,-0.34 -1.15,0.05l-0.42 0.45c-0.08,0.09 -0.08,0.2 0.01,0.29 0.39,0.36 0.88,0.43 1.45,0.23l-0.14 0.15zm4.5 -2.79c0.36,-0.4 0.11,-0.73 -0.76,-0.98 -0.4,0.02 -0.71,0.17 -0.99,0.47 -0.19,0.21 -0.25,0.43 -0.19,0.66 0.06,0.23 0.27,0.35 0.66,0.34l-0.15 -0.14c0.48,0.27 0.96,0.16 1.43,-0.35zm50.57 -55.23c-0.7,-0.26 -1.1,0.1 -1.26,1.06 -0.07,0.49 0.17,0.72 0.75,0.69l-0.15 -0.14c0.39,0.18 0.82,-0.18 1.25,-1.06 -0.11,-0.48 -0.35,-0.71 -0.75,-0.69l0.15 0.14zm-3.14 1c-0.57,0.2 -0.61,0.55 -0.1,1.02 0.6,0.55 1.19,0.71 1.75,0.51l-0.14 0.15c0.4,-0.02 0.55,-0.19 0.48,-0.53 -0.07,-0.34 -0.18,-0.59 -0.39,-0.78 -0.39,-0.36 -0.89,-0.54 -1.47,-0.52l-0.14 0.15zm-0.94 1.63c-0.02,-0.58 -0.27,-0.77 -0.74,-0.55 -0.48,0.22 -0.84,0.65 -1.1,1.34 0.03,0.76 0.38,0.9 1.03,0.39 0.55,-0.6 0.83,-1.01 0.82,-1.19zm-2.43 0.53c-0.52,-0.65 -0.9,-0.83 -1.18,-0.53 -0.36,0.39 -0.25,0.88 0.35,1.43l0.6 0.55c0.09,0.09 0.2,0.08 0.29,-0.01 0.19,-0.21 0.22,-0.39 0.12,-0.58 -0.1,-0.19 -0.17,-0.46 -0.18,-0.86zm-3.46 0.14c-1.15,0.05 -1.22,0.54 -0.23,1.46 1.11,1.02 1.63,0.94 1.58,-0.21 -0.02,-0.4 -0.1,-0.64 -0.25,-0.78 -0.15,-0.14 -0.52,-0.31 -1.1,-0.46zm-3.49 2.89c-0.05,-1.15 -0.57,-1.18 -1.59,-0.08 -0.92,0.99 -0.8,1.48 0.35,1.43 0.4,-0.01 0.67,-0.08 0.86,-0.18 0.19,-0.1 0.32,-0.5 0.38,-1.17zm-2.71 0.83c-0.69,-0.64 -1.32,-0.67 -1.88,-0.07 -0.64,0.69 -0.35,1.17 0.93,1.41l-0.15 -0.14c0.3,0.28 0.63,0.41 1.03,0.39l0.58 -0.03c0.36,-0.39 0.2,-0.93 -0.5,-1.57zm-7.13 3.15c-0.3,-0.28 -0.88,-0.29 -1.74,-0.07 -0.86,0.22 -1.51,0.59 -1.98,1.09 0.88,0.25 1.37,0.43 1.47,0.52 0.21,0.37 0.48,0.27 0.85,-0.32 0.19,-0.21 0.37,-0.11 0.59,0.26 0.32,0.86 0.67,0.78 1,-0.19l0.14 -0.15 0.58 -0.02c0.95,-0.24 1.18,-0.57 0.68,-1.04 -0.21,-0.19 -0.21,-0.37 -0.02,-0.58 0.19,-0.21 0.28,-0.12 0.3,0.28 0.01,0.4 0.15,0.56 0.38,0.49 0.23,-0.07 0.44,-0.29 0.62,-0.68 0.07,-0.49 0.21,-0.53 0.43,-0.16 0.41,0.76 0.9,0.83 1.45,0.23 0.19,-0.21 0.29,-0.46 0.33,-0.81 0.04,-0.34 -0.1,-0.65 -0.4,-0.92 -0.51,-0.47 -1.27,-0.47 -2.31,-0.05 -1.05,0.42 -1.8,1.09 -2.23,1.97l-0.14 0.15zm-9.16 4.6c0.67,-0.32 0.99,-0.62 0.97,-0.9 -0.01,-0.29 -0.2,-0.43 -0.59,-0.41 -0.39,0.02 -1.08,0.53 -2.1,1.53 -1.02,1 -1.66,1.84 -1.92,2.53l0.3 0.28c0.46,-0.3 1.48,-0.85 3.04,-1.64 1.56,-0.78 3.24,-1.56 5.03,-2.3l-0.14 0.15c1.61,-0.35 2.13,-0.81 1.53,-1.36 -0.09,-0.09 -0.55,-0.12 -1.3,-0.09 0.64,-0.69 0.34,-0.97 -0.9,-0.83 -1.06,0.14 -1.73,0.42 -2.01,0.82 -0.27,0.41 -0.13,0.71 0.45,0.87 -0.17,0.19 -0.4,0.32 -0.67,0.42 -0.95,0.62 -1.67,1.06 -2.18,1.32 -0.51,0.25 -0.36,0.12 0.49,-0.38zm-69.11 57.29c-0.41,1.84 0.14,1.96 1.61,0.37 1.02,-1.11 0.95,-1.52 -0.2,-1.29 -0.76,0.03 -1.2,0.28 -1.27,0.77l-0.14 0.15zm2.62 -3.14c-0.83,0.9 -0.85,1.34 -0.09,1.31 0.4,-0.02 0.71,-0.35 0.97,-1.05l-0.88 -0.26zm-7.96 13.47c0.4,-0.02 0.61,-0.55 0.65,-1.62 -0.86,0.14 -1.28,0.45 -1.26,0.92 0.02,0.47 0.21,0.71 0.61,0.7zm67.52 -64.3c-0.57,0.2 -0.65,0.51 -0.25,0.88 0.39,0.36 0.79,0.35 1.15,-0.05 0.09,-0.09 0.14,-0.19 0.13,-0.3 -0,-0.11 0.05,-0.2 0.13,-0.29l0.14 -0.15c-0.39,-0.36 -0.84,-0.4 -1.3,-0.09zm-3.96 1.89c-0.09,0.1 -0.25,0.16 -0.43,0.16 -0.67,0.32 -0.78,0.67 -0.39,1.03 0.39,0.36 0.99,0.25 1.72,-0.36 0.09,-0.09 0.21,-0.19 0.35,-0.23 0.14,-0.04 0.27,-0.14 0.35,-0.23l0.28 -0.3c-0.39,-0.36 -0.97,-0.44 -1.74,-0.21l-0.14 0.15zm-16.32 7.45c-1.72,0.43 -2.57,0.72 -2.57,0.83 0,0.07 0.73,0.26 2.19,0.49l-0.15 -0.14c0.97,0.34 1.89,0.25 2.73,-0.26 0.1,-0.11 0.21,-0.19 0.35,-0.23 0.14,-0.08 0.27,-0.14 0.35,-0.23 0.19,-0.21 0.37,-0.32 0.56,-0.31 0.19,-0.21 0.66,-0.33 1.43,-0.35 0.28,-0.12 0.8,-0.34 1.56,-0.64 0.76,-0.34 1.56,-0.75 2.4,-1.25 0.84,-0.54 1.62,-1.01 2.32,-1.47 0.7,-0.46 1.19,-0.84 1.47,-1.14 -1.27,-0.06 -2.19,0.27 -2.85,0.98 -0.17,0.19 -0.63,0.39 -1.35,0.56 -0.72,0.17 -1.4,0.31 -2.08,0.45 -0.69,-0.08 -1.34,-0.05 -2.02,0.09 -0.66,0.11 -0.99,0.36 -0.98,0.76 -0.17,0.19 -0.37,0.29 -0.57,0.31l0.15 0.14c-0.68,-0.28 -1.15,0.05 -1.41,0.92 -0.09,0.09 -0.23,0.14 -0.42,0.16 -0.2,-0.01 -0.4,0.05 -0.57,0.17 -0.2,0.1 -0.37,0.14 -0.57,0.17zm0.34 -2.74c-0.67,0.32 -1,0.64 -1.04,0.98 -0.04,0.34 0.24,0.5 0.81,0.47 0.58,-0.02 1.05,-0.42 1.39,-1.21 0.35,-0.79 0.49,-1.17 0.38,-1.17 -0.11,0.01 -0.6,0.32 -1.55,0.93zm-14.09 11.99c-0.7,-0.26 -1.48,-0.01 -2.35,0.75 -0.87,0.76 -1.08,1.36 -0.58,1.83 0.4,0.36 0.84,0.11 1.27,-0.78 0.35,-0.79 0.88,-0.96 1.57,-0.5 0.67,0.06 1.15,-0.23 1.4,-0.92 0.36,-0.39 0.61,-0.55 0.7,-0.46 0.4,0.36 0.87,0.07 1.41,-0.92 0.36,-0.39 0.61,-0.55 0.7,-0.46 0.3,0.28 0.78,0.06 1.42,-0.63 0,0 0.19,-0.21 0.56,-0.6 0.39,0.36 0.79,0.35 1.15,-0.05 0.47,-0.51 0.83,-0.86 1.11,-1.06 0.28,-0.19 0.74,-0.46 1.41,-0.78 3.12,-1.39 4.09,-2.44 2.9,-3.15 -0.78,-0.17 -1.39,0 -1.86,0.51 -0.47,0.51 -0.78,0.66 -0.99,0.48 -0.51,-0.47 -0.88,-0.25 -1.13,0.62 -0.29,0.12 -0.62,0.26 -0.99,0.47 -0.28,0.12 -0.6,0.31 -0.99,0.62 -0.39,0.3 -0.7,0.5 -0.98,0.62 -0.95,0.62 -1.6,1.02 -1.97,1.24l-1.13 0.62c-0.19,0.21 -0.65,0.51 -1.41,0.92l0.14 -0.15c-1.15,0.23 -1.45,0.78 -0.94,1.63l-0.15 -0.14c0.01,0.18 -0.1,0.29 -0.28,0.3zm-12.33 8.34c-0.47,0.51 -0.89,0.85 -1.26,1.06 -1.5,1.22 -2.58,2.24 -3.27,3.1 -0.68,0.86 -0.74,1.15 -0.18,0.95 0.58,-0.02 1.93,-0.89 4.08,-2.62l4.07 -2.91c0.19,-0.21 0.31,-0.3 0.42,-0.31 0.11,-0 0.2,-0.06 0.28,-0.15 0.64,-0.7 1.25,-1.17 1.82,-1.38 0.19,-0.21 0.21,-0.64 0.09,-1.31 -0.42,-0.56 -0.7,-0.78 -0.9,-0.69 -0.19,0.1 -0.64,0.55 -1.39,1.36 -0.18,0.39 -0.53,0.72 -1.05,0.98 -0.51,0.26 -0.92,0.44 -1.2,0.56 -1.36,-0.14 -1.67,0.12 -0.98,0.76l-0.55 0.6zm-10.19 8.36c-0.37,0.22 -0.77,0.5 -1.19,0.84 -0.42,0.34 -0.66,0.68 -0.75,0.97 -0.43,0.89 -0.56,1.29 -0.31,1.24 0.23,-0.06 0.84,-0.47 1.86,-1.2l1.92 -1.56c0.19,-0.21 0.43,-0.43 0.76,-0.68 0.33,-0.25 0.58,-0.47 0.77,-0.68 0.56,-0.42 1.03,-0.85 1.39,-1.36 0.36,-0.5 0.45,-0.83 0.27,-1 -0.36,-0.33 -1.04,0.04 -2.06,1.15 -0.83,0.9 -1.7,1.66 -2.65,2.28zm-4.93 3.78c-0.76,0.41 -1.6,1.13 -2.51,2.13 -0.91,0.99 -1.85,2.04 -2.76,3.14 -0.91,1.1 -1.63,2.11 -2.11,3.05 -0.48,0.94 -0.64,1.49 -0.44,1.68 0.1,0.09 0.67,-0.32 1.68,-1.23 1.01,-0.91 2.22,-2.11 3.61,-3.61 2.67,-2.71 4.22,-4.54 4.61,-5.46 0.4,-0.92 -0.31,-0.84 -2.08,0.3zm1698.87 101.65c0.18,0.09 0.48,-0.68 0.95,-2.3 0.28,-1.19 0.38,-2.41 0.24,-3.63 -0.14,-1.22 -0.49,-3.16 -1.08,-5.82 -0.74,-3.31 -1.55,-6.37 -2.46,-9.17 -0.91,-2.8 -1.68,-5.11 -2.37,-6.89 -0.06,-0.27 -0.13,-0.49 -0.25,-0.67 -0.12,-0.18 -0.2,-0.43 -0.26,-0.7 -0.18,-0.22 -0.42,-0.58 -0.66,-1.1 -0.24,-0.5 -0.29,-0.69 -0.13,-0.6 -0.14,-0.65 -0.32,-1.1 -0.51,-1.35 -0.03,-0.12 -0.09,-0.29 -0.21,-0.48 -0.12,-0.18 -0.18,-0.33 -0.21,-0.48 -0.39,-0.46 -0.83,-1.38 -1.34,-2.73 -0.51,-1.35 -1.02,-2.59 -1.56,-3.73 -0.33,-0.89 -0.91,-2.2 -1.71,-3.91 -0.79,-1.7 -1.65,-3.58 -2.6,-5.59 -0.95,-2.04 -1.95,-4.06 -3.03,-6.12 -1.09,-2.08 -2.13,-4.05 -3.09,-5.92 -0.54,-1.13 -1.09,-2.21 -1.67,-3.29 -0.57,-1.05 -1.09,-1.95 -1.54,-2.69 -0.48,-0.86 -0.94,-1.75 -1.42,-2.61l-0.2 0.04c-0.13,0.03 -0.23,0.03 -0.32,-0.03 -0.09,-0.06 -0.2,-0.06 -0.32,-0.03 -1.07,0.24 -1.27,-0.06 -0.62,-0.91 0.46,-0.39 0.37,-0.79 -0.27,-1.2 -1.34,-1.66 -1.98,-2.69 -1.95,-3.12 -0.06,-0.27 -0.21,-0.37 -0.49,-0.31 -0.67,0.15 -0.95,-0.15 -0.82,-0.86 0.15,-0.61 0.1,-0.86 -0.18,-0.8 -0.43,-0.06 -0.9,-0.64 -1.44,-1.77 -0.21,-0.95 -0.39,-1.4 -0.52,-1.38 -0.4,0.09 -0.7,-0.31 -0.91,-1.26 -0.15,-0.65 -0.59,-1.12 -1.35,-1.37l-0.04 -0.2c-0.03,-0.13 -0.07,-0.22 -0.17,-0.28 -0.09,-0.03 -0.15,-0.2 -0.21,-0.48 0.04,-0.43 -0.12,-0.91 -0.53,-1.45 -0.41,-0.54 -1.2,-1.64 -2.41,-3.33 -0.03,-0.12 -0.14,-0.28 -0.31,-0.45 -0.17,-0.17 -0.28,-0.33 -0.31,-0.45 -1.39,-1.91 -2.16,-3.15 -2.28,-3.67 -0.06,-0.27 -0.33,-0.55 -0.82,-0.86l0.2 -0.04c-0.73,-0.13 -1.02,-0.48 -0.86,-1.06 0.1,-0.15 0.03,-0.45 -0.2,-0.9 -0.23,-0.45 -0.53,-0.85 -0.91,-1.26 -0.38,-0.41 -0.72,-0.78 -1.08,-1.12 -0.36,-0.34 -0.66,-0.48 -0.93,-0.42 -0.34,-0.21 -0.6,-0.83 -0.84,-1.9 -0.18,-0.8 -0.39,-1.17 -0.64,-1.11 -0.65,0.14 -0.86,-0.23 -0.66,-1.11l-0.7 -0.47c-0.49,-0.31 -0.79,-0.74 -0.91,-1.26 -0.64,-0.41 -1.03,-0.9 -1.15,-1.42 0.06,-0.3 0.01,-0.55 -0.18,-0.8 -0.19,-0.25 -0.44,-0.45 -0.77,-0.67 -0.64,-0.4 -1.08,-1.09 -1.29,-2.01 -0.15,-0.67 -0.29,-0.98 -0.42,-0.95 -0.52,0.12 -1.04,-0.32 -1.55,-1.33 -0.18,-0.25 -0.3,-0.43 -0.33,-0.55 -0.03,-0.13 -0.13,-0.26 -0.29,-0.35 -0.33,-0.21 -0.74,-0.88 -1.28,-2.02 -0.45,-0.74 -0.79,-1.08 -1.06,-1.02 -0.52,0.11 -0.69,-0.27 -0.46,-1.15l-0.2 0.04c-0.4,0.09 -0.98,-0.28 -1.7,-1.08l0.04 0.2c-0.39,-0.46 -0.52,-0.82 -0.44,-1.05 0.08,-0.23 0.36,-0.26 0.82,-0.08l-0.24 -0.16c-0.03,-0.12 -0.07,-0.19 -0.14,-0.18 -0.08,0.02 -0.12,-0.05 -0.15,-0.18 -0.21,-0.37 -0.39,-0.46 -0.49,-0.31l-0.2 0.04c-0.77,0.3 -1.62,-0.69 -2.54,-2.99l0.04 0.2 -1.55 -1.33c-0.15,-0.1 -0.34,-0.26 -0.53,-0.51 -0.18,-0.25 -0.29,-0.38 -0.31,-0.46 -0.02,-0.07 -0.13,-0.21 -0.31,-0.45 -0.3,-0.77 -1.07,-1.64 -2.26,-2.63 -1.19,-0.99 -1.9,-1.38 -2.15,-1.19l-1.39 -1.57c-0.46,-0.19 -0.69,-0.27 -0.69,-0.27 0.06,0.27 -0.01,0.42 -0.21,0.46 -0.2,0.04 -0.45,-0.03 -0.79,-0.24 -0.46,-0.18 -0.93,-0.08 -1.39,0.31 -0.46,0.39 -1.3,0.71 -2.5,0.97 -1.17,0.39 -2.69,1.43 -4.54,3.1 -1.85,1.67 -3.35,3.38 -4.49,5.18 -0.52,0.82 -0.97,1.76 -1.36,2.81 -0.39,1.05 -0.64,1.95 -0.76,2.68 -0.32,1.74 -0.38,3.12 -0.23,4.13 0.15,1.01 0.36,1.49 0.63,1.43 0.67,-0.15 1.16,0.16 1.46,0.93 0.42,0.61 0.52,0.95 0.34,1.07 -0.18,0.12 -0.43,0.07 -0.76,-0.15l0.2 -0.04c-0.33,-0.21 -0.46,-0.19 -0.4,0.09 0,0 0.24,0.15 0.73,0.46 0.33,0.21 0.63,0.49 0.92,0.84 0.29,0.35 0.46,0.66 0.52,0.93 -0.64,-0.41 -1.01,-0.64 -1.1,-0.7 -0.09,-0.06 -0.09,0.04 -0.03,0.32 0.12,0.52 0.3,0.77 0.57,0.71 0.52,-0.12 0.73,0.13 0.57,0.71 -0.1,0.15 -0.06,0.3 0.09,0.4 0.8,-0.18 1.07,0.1 0.82,0.86 0.12,0.52 0.25,0.78 0.38,0.75 0.27,-0.06 0.5,0.02 0.68,0.27 0.19,0.25 0.2,0.51 -0.02,0.84 -0.1,0.15 -0.01,0.42 0.28,0.77 0.29,0.35 0.53,0.64 0.72,0.89 0.39,0.46 0.7,0.81 0.96,1.04 0.26,0.23 0.19,0.38 -0.21,0.46 0.03,0.12 0.14,0.31 0.33,0.55l0.86 1.06 -0.04 -0.2c0.33,0.21 0.54,0.43 0.67,0.69 0.14,0.26 0.29,0.48 0.48,0.73l0.57 0.71c0.03,0.12 0.16,0.38 0.38,0.75 0.21,0.37 0.43,0.66 0.62,0.91 0.18,0.25 0.48,0.63 0.88,1.16 0.41,0.54 0.72,0.99 0.93,1.36 0.33,0.21 0.53,0.51 0.62,0.91 0.48,0.86 0.83,1.28 1.1,1.22 0.67,-0.15 0.87,0.14 0.62,0.91 0.12,0.52 0.25,0.78 0.38,0.75 0.67,-0.15 0.87,0.15 0.62,0.91 0.13,0.6 0.27,0.88 0.4,0.85 0.8,-0.18 1.06,0.08 0.8,0.76 0.03,0.13 -0.01,0.29 -0.11,0.44 0.4,-0.09 0.84,0.13 1.29,0.65 0.46,0.53 0.65,0.93 0.59,1.23 0.67,0.56 1.37,1.37 2.11,2.45 0.74,1.09 1.07,1.85 1.03,2.28 0.25,-0.19 0.47,-0.13 0.66,0.17 0.2,0.3 0.35,0.65 0.44,1.05 0.45,0.74 0.37,1.09 -0.18,1.08 -0.15,-0.1 -0.03,0.01 0.39,0.33 0.41,0.33 0.81,0.73 1.21,1.2 0.67,0.56 1.17,1.18 1.46,1.87 0.29,0.72 0.09,1 -0.64,0.87 0.34,0.21 0.5,0.38 0.53,0.51 0.49,0.31 0.85,0.44 1.13,0.38 0.52,-0.11 0.91,-0.02 1.11,0.28 0.2,0.32 0.55,1.18 0.99,2.6 0.21,0.95 0.49,1.64 0.88,2.1l-0.04 -0.2c0.16,0.12 0.26,0.36 0.28,0.78 0.01,0.42 -0.01,0.78 -0.08,1.06 0.09,0.4 0.38,0.75 0.86,1.06 0.34,0.21 0.64,0.54 0.94,0.94 0.3,0.43 0.5,0.86 0.59,1.25 0.14,0.65 0.74,1.43 1.77,2.32 0.97,0.62 1.62,1.65 1.95,3.12 0.14,0.65 0.45,1.21 0.9,1.68 0.44,0.45 0.81,0.71 1.12,0.8 0.3,0.06 0.19,0.29 -0.27,0.69 0.15,0.1 0.26,0.57 0.31,1.4l0.71 -0.58c0.92,-0.2 1.32,-0.03 1.17,0.57 -0.18,0.46 0.14,1.22 0.93,2.3 0.54,1.13 0.6,1.75 0.2,1.84 -0.4,0.09 -0.81,-0.24 -1.26,-0.97 -0.42,-0.61 -0.53,-0.62 -0.32,-0.04 0.21,0.58 0.46,1.26 0.76,2.03 0.45,0.73 0.82,1.33 1.14,1.83 0.32,0.48 0.58,0.63 0.83,0.45 0.34,-0.36 0.84,-0.32 1.48,0.09l-0.11 0.44c-0.73,-0.13 -0.85,0.4 -0.39,1.55 0.46,1.15 1.64,3.53 3.57,7.15 1.53,3.13 3.13,6.44 4.81,9.9 1.68,3.47 3.28,6.9 4.8,10.32 1.52,3.43 2.93,6.74 4.2,9.96 1.26,3.2 2.29,5.97 3.1,8.3 1.49,4.27 2.46,6.95 2.83,8.05 0.37,1.09 0.7,1.62 0.97,1.56 0.8,-0.18 1.07,0.1 0.82,0.86 0.21,0.35 1.34,0.36 3.35,0.04 0.8,-0.18 1.52,-0.34 2.17,-0.48 0.67,-0.15 0.98,-0.27 0.96,-0.37 -0.11,-0.5 0.31,-0.85 1.23,-1.05 0.55,-0.12 1.01,-0.51 1.42,-1.15l0.05 0.2c0.06,-0.3 0.21,-0.59 0.42,-0.93 0.21,-0.34 0.43,-0.51 0.71,-0.57l1.59 -0.35c0.12,-0.03 0.01,-0.29 -0.38,-0.75 -0.55,-0.58 -0.96,-0.94 -1.28,-1.07 -0.32,-0.14 0.33,-0.05 1.95,0.3 0.46,0.19 1.2,-0.27 2.21,-1.33 1.02,-1.06 1.88,-2.46 2.61,-4.13 1.24,-1.95 1.83,-3.07 1.77,-3.32l0.51 -0.53zm-69.7 -82.39l-0.24 -0.15c0.03,0.13 0.2,0.3 0.53,0.51l0.24 0.16c0.13,-0.03 0.18,-0.12 0.16,-0.24 -0.34,-0.21 -0.56,-0.29 -0.69,-0.27zm3.12 -39.56c0.52,-0.12 0.87,0.14 1.02,0.82 0.18,0.8 0.14,1.22 -0.13,1.29 -0.27,0.06 -0.61,-0.28 -1.06,-1.02 -0.15,-0.67 -0.1,-1.02 0.17,-1.08zm43.15 123.75c-0.3,-0.77 -0.26,-1.19 0.13,-1.28 0.52,-0.11 0.89,0.22 1.06,1.02l0.18 0.8c0.03,0.13 -0.03,0.22 -0.15,0.24 -0.28,0.06 -0.67,-0.19 -1.22,-0.78zm-0.55 -1.55c-0.33,-0.21 -0.43,-0.66 -0.31,-1.39 0.32,-1.04 0.64,-1.48 0.97,-1.26 0.03,0.13 0.07,0.33 0.13,0.6 0.06,0.27 0.04,0.54 -0.02,0.84 -0.04,1.13 -0.29,1.53 -0.78,1.22zm-2.67 -7.56c-0.48,-1.57 -0.53,-2.39 -0.13,-2.48 0.27,-0.06 0.52,0.09 0.73,0.46 0.21,0.37 0.38,0.75 0.46,1.15 0.29,1.32 0.66,2.36 1.11,3.1 -0.8,0.18 -1.51,-0.58 -2.17,-2.24zm-1.35 -3.25c-0.33,-0.21 -0.55,-0.48 -0.7,-0.79 -0.14,-0.31 -0.24,-0.6 -0.3,-0.87 0.21,-0.33 0.58,-0.34 1.14,-0.04 0.56,0.29 0.9,0.77 1.05,1.44 0.33,1.47 -0.07,1.56 -1.2,0.27zm-0.87 -2.76c-0.52,0.12 -0.86,-0.1 -0.98,-0.64 -0.11,-0.52 0.1,-0.86 0.62,-0.97l0.49 0.33c0.58,0.71 0.54,1.14 -0.13,1.29zm-2.78 -5c-0.42,-0.61 -0.35,-0.97 0.18,-1.09 0.52,-0.12 0.88,0.22 1.06,1.02 -0.31,0.49 -0.71,0.57 -1.19,0.26l-0.04 -0.2zm-22.95 -88.32c-0.59,1.1 -1.04,0.99 -1.33,-0.33 -0.21,-0.92 0.15,-1.21 1.06,-0.87 0.33,0.21 0.41,0.54 0.22,1l0.05 0.2zm11.72 67.83c-0.24,-0.49 -0.1,-0.81 0.42,-0.93 0.28,-0.06 0.52,-0.01 0.76,0.14 0.24,0.15 0.28,0.46 0.1,0.92 0.03,0.12 -0.16,0.24 -0.55,0.33l-0.73 -0.47zm-1.19 -1.61c-0.33,-0.21 -0.41,-0.43 -0.25,-0.67 0.15,-0.24 0.35,-0.39 0.63,-0.46 0.52,-0.12 0.86,0.1 0.97,0.62l0.13 0.6c0.03,0.12 -0.03,0.21 -0.15,0.24 -0.52,0.11 -0.98,-0.07 -1.37,-0.53l0.05 0.2zm-2.5 -4.67c-0.12,-0.52 0.27,-0.69 1.15,-0.46 0.34,0.21 0.53,0.51 0.62,0.91 0.06,0.28 0,0.49 -0.17,0.67 -0.17,0.17 -0.41,0.17 -0.74,-0.05l0.2 -0.04c-0.55,-0.01 -0.91,-0.34 -1.06,-1.02zm-16.03 -73.14c0.73,0.13 0.9,0.64 0.55,1.55 -0.19,0.46 -0.51,0.53 -0.99,0.22l0.2 -0.04c-0.43,-0.03 -0.62,-0.57 -0.55,-1.55 0.34,-0.36 0.66,-0.43 1,-0.22l-0.2 0.04zm2.21 2.44c0.39,0.46 0.25,0.78 -0.42,0.93 -0.8,0.18 -1.38,0.02 -1.77,-0.44l0.05 0.2c-0.34,-0.22 -0.39,-0.44 -0.16,-0.7 0.23,-0.26 0.46,-0.42 0.73,-0.48 0.52,-0.11 1.04,-0.02 1.53,0.29l0.04 0.2zm-0 1.88c0.31,-0.49 0.62,-0.53 0.92,-0.1 0.31,0.43 0.4,0.98 0.28,1.72 -0.41,0.64 -0.78,0.59 -1.09,-0.18 -0.18,-0.8 -0.21,-1.29 -0.11,-1.44zm1.84 1.68c0.77,-0.3 1.2,-0.27 1.29,0.13 0.12,0.52 -0.22,0.89 -1.02,1.06l-0.8 0.18c-0.13,0.03 -0.22,-0.03 -0.24,-0.15 -0.06,-0.28 0.01,-0.45 0.19,-0.56 0.18,-0.12 0.37,-0.32 0.59,-0.65zm2.92 1.86c0.97,0.62 0.79,1.08 -0.53,1.37 -1.47,0.32 -1.88,-0 -1.26,-0.98 0.21,-0.34 0.41,-0.51 0.61,-0.55 0.2,-0.04 0.6,-0 1.18,0.15zm1.57 4.25c0.62,-0.97 1.09,-0.74 1.41,0.73 0.29,1.32 -0.04,1.68 -1.02,1.06 -0.34,-0.21 -0.53,-0.4 -0.65,-0.59 -0.12,-0.18 -0.03,-0.6 0.26,-1.21zm1.92 2.08c0.92,-0.2 1.48,0.09 1.66,0.88 0.2,0.92 -0.28,1.19 -1.5,0.75l0.2 -0.05c-0.4,0.09 -0.75,0.04 -1.09,-0.18l-0.49 -0.31c-0.12,-0.52 0.3,-0.9 1.22,-1.1zm4.58 6.3c0.4,-0.09 0.9,0.19 1.54,0.81 0.63,0.62 1.01,1.26 1.16,1.94 -0.88,-0.22 -1.4,-0.32 -1.53,-0.29 -0.37,0.22 -0.55,-0.01 -0.57,-0.71 -0.06,-0.28 -0.27,-0.28 -0.64,-0.07 -0.71,0.58 -0.97,0.35 -0.77,-0.66l-0.05 -0.2 -0.49 -0.31c-0.7,-0.68 -0.74,-1.09 -0.07,-1.24 0.27,-0.06 0.37,-0.21 0.31,-0.49 -0.06,-0.27 -0.19,-0.25 -0.4,0.09 -0.21,0.34 -0.41,0.41 -0.58,0.24 -0.17,-0.17 -0.23,-0.47 -0.2,-0.9 0.19,-0.46 0.08,-0.57 -0.29,-0.36 -0.74,0.45 -1.19,0.27 -1.37,-0.53 -0.06,-0.28 -0.01,-0.55 0.12,-0.86 0.14,-0.32 0.41,-0.51 0.81,-0.6 0.67,-0.15 1.33,0.23 2.03,1.12 0.69,0.89 1.01,1.84 0.94,2.82l0.04 0.2zm5.61 8.57c-0.42,-0.61 -0.54,-1.03 -0.39,-1.27 0.16,-0.24 0.39,-0.27 0.72,-0.06 0.33,0.21 0.67,1 1.05,2.38 0.38,1.38 0.51,2.42 0.39,3.15l-0.4 0.09c-0.24,-0.49 -0.85,-1.48 -1.8,-2.94 -0.95,-1.46 -2.02,-2.98 -3.2,-4.52l0.05 0.2c-1.21,-1.11 -1.44,-1.77 -0.64,-1.95 0.12,-0.03 0.53,0.17 1.17,0.57 -0.2,-0.92 0.19,-1.01 1.2,-0.27 0.85,0.65 1.29,1.23 1.32,1.72 0.03,0.49 -0.24,0.68 -0.83,0.52 0.06,0.25 0.19,0.48 0.37,0.7 0.51,1.01 0.91,1.76 1.23,2.24 0.31,0.48 0.24,0.29 -0.23,-0.58zm31.03 84.23c-0.57,1.8 -1.1,1.63 -1.57,-0.49 -0.33,-1.47 -0.06,-1.79 0.82,-1.02 0.64,0.41 0.9,0.85 0.71,1.3l0.04 0.2zm-0.69 -4.03c0.27,1.2 0.06,1.58 -0.57,1.18 -0.33,-0.21 -0.43,-0.66 -0.31,-1.39l0.88 0.22zm0.13 15.65c-0.34,-0.21 -0.25,-0.78 0.24,-1.72 0.67,0.55 0.88,1.03 0.63,1.43 -0.25,0.39 -0.54,0.51 -0.87,0.3zm-26.14 -89.49c0.39,0.46 0.3,0.77 -0.22,0.88 -0.52,0.12 -0.86,-0.1 -0.97,-0.62 -0.03,-0.13 -0.03,-0.23 0.03,-0.32 0.06,-0.09 0.06,-0.2 0.03,-0.32l-0.05 -0.2c0.52,-0.12 0.93,0.08 1.18,0.58zm2.48 3.63c0.03,0.13 0.13,0.26 0.29,0.35 0.42,0.61 0.35,0.97 -0.18,1.09 -0.52,0.11 -0.98,-0.28 -1.31,-1.18 -0.03,-0.12 -0.09,-0.27 -0.19,-0.37 -0.1,-0.11 -0.16,-0.25 -0.19,-0.38l-0.09 -0.4c0.52,-0.12 1.07,0.1 1.61,0.69l0.04 0.2zm10.38 14.62c1.27,1.23 1.86,1.91 1.8,2 -0.04,0.06 -0.76,-0.15 -2.14,-0.68l0.2 -0.04c-1.01,-0.2 -1.75,-0.73 -2.23,-1.6 -0.03,-0.15 -0.08,-0.27 -0.19,-0.38 -0.08,-0.14 -0.16,-0.25 -0.19,-0.38 -0.06,-0.27 -0.15,-0.46 -0.33,-0.55 -0.06,-0.28 -0.4,-0.62 -1.06,-1.02 -0.19,-0.25 -0.52,-0.69 -1.03,-1.34 -0.49,-0.68 -0.97,-1.43 -1.45,-2.29 -0.46,-0.89 -0.9,-1.68 -1.27,-2.44 -0.38,-0.75 -0.61,-1.33 -0.7,-1.73 1.12,0.59 1.76,1.33 1.97,2.28 0.06,0.25 0.35,0.65 0.88,1.16 0.53,0.51 1.05,0.97 1.57,1.43 0.64,0.28 1.18,0.62 1.7,1.08 0.51,0.43 0.68,0.82 0.46,1.15 0.06,0.25 0.17,0.43 0.33,0.55l-0.2 0.05c0.73,0.1 0.97,0.62 0.76,1.5 0.03,0.13 0.13,0.23 0.29,0.36 0.18,0.09 0.32,0.24 0.41,0.43 0.12,0.18 0.25,0.31 0.41,0.43zm1.08 -2.54c0.42,0.61 0.55,1.05 0.41,1.37 -0.14,0.32 -0.45,0.31 -0.94,0 -0.49,-0.31 -0.69,-0.89 -0.6,-1.75 0.1,-0.86 0.16,-1.26 0.25,-1.21 0.09,0.06 0.36,0.57 0.87,1.58zm6.17 17.44c0.73,0.12 1.29,0.73 1.66,1.83 0.37,1.09 0.25,1.72 -0.42,1.87 -0.52,0.12 -0.78,-0.33 -0.71,-1.31 0.1,-0.86 -0.28,-1.27 -1.11,-1.22 -0.61,-0.28 -0.88,-0.77 -0.75,-1.5 -0.12,-0.52 -0.25,-0.78 -0.38,-0.76 -0.52,0.12 -0.79,-0.37 -0.75,-1.5 -0.12,-0.52 -0.25,-0.78 -0.38,-0.75 -0.4,0.09 -0.7,-0.34 -0.91,-1.26 0,0 -0.06,-0.28 -0.18,-0.8 -0.52,0.11 -0.85,-0.1 -0.97,-0.62 -0.15,-0.67 -0.28,-1.16 -0.43,-1.47 -0.15,-0.31 -0.41,-0.77 -0.83,-1.38 -2,-2.77 -2.31,-4.16 -0.93,-4.18 0.76,0.25 1.2,0.7 1.35,1.37 0.15,0.67 0.34,0.97 0.62,0.91 0.67,-0.15 0.89,0.22 0.66,1.11 0.19,0.25 0.41,0.54 0.62,0.91 0.18,0.25 0.36,0.57 0.54,1.03 0.18,0.45 0.36,0.78 0.54,1.03 0.51,1.01 0.87,1.69 1.08,2.06l0.66 1.11c0.06,0.27 0.3,0.77 0.75,1.5l-0.04 -0.2c0.88,0.77 0.86,1.4 -0,1.88l0.2 -0.04c-0.1,0.15 -0.06,0.3 0.09,0.4zm6.48 13.4c0.15,0.67 0.34,1.18 0.55,1.55 0.69,1.81 1.11,3.23 1.27,4.32 0.16,1.08 0.07,1.37 -0.32,0.9 -0.49,-0.31 -1.22,-1.74 -2.21,-4.31l-2.06 -4.56c-0.06,-0.27 -0.12,-0.42 -0.21,-0.48 -0.09,-0.06 -0.14,-0.15 -0.17,-0.27 -0.2,-0.92 -0.49,-1.64 -0.88,-2.1 -0.06,-0.27 0.14,-0.66 0.57,-1.17 0.64,-0.27 1,-0.33 1.12,-0.14 0.12,0.18 0.28,0.8 0.52,1.87 -0.04,0.43 0.09,0.89 0.41,1.37 0.32,0.48 0.58,0.84 0.76,1.08 1.25,0.56 1.39,0.94 0.46,1.15l0.18 0.8zm4.62 12.35c0.21,0.37 0.42,0.82 0.61,1.33 0.19,0.51 0.23,0.91 0.17,1.22 -0.07,0.98 -0.16,1.39 -0.35,1.23 -0.17,-0.17 -0.5,-0.83 -1.01,-1.97l-0.88 -2.31c-0.06,-0.27 -0.16,-0.59 -0.32,-0.97 -0.16,-0.38 -0.26,-0.7 -0.32,-0.97 -0.27,-0.65 -0.46,-1.26 -0.52,-1.87 -0.06,-0.61 0.02,-0.94 0.27,-1 0.47,-0.1 0.88,0.56 1.21,2.03 0.26,1.19 0.64,2.29 1.15,3.3zm2.37 5.74c0.45,0.74 0.81,1.78 1.11,3.1 0.29,1.32 0.57,2.69 0.81,4.1 0.24,1.41 0.35,2.64 0.3,3.7 -0.05,1.06 -0.19,1.61 -0.46,1.67 -0.13,0.03 -0.42,-0.61 -0.84,-1.9 -0.42,-1.29 -0.86,-2.94 -1.31,-4.94 -0.95,-3.68 -1.37,-6.05 -1.25,-7.04 0.12,-0.99 0.68,-0.57 1.65,1.31zm74.82 -69.77c0.2,-0.01 0.07,-0.83 -0.33,-2.47 -0.35,-1.17 -0.88,-2.28 -1.62,-3.26 -0.73,-0.99 -2.01,-2.48 -3.85,-4.49 -2.3,-2.5 -4.54,-4.73 -6.73,-6.7 -2.19,-1.97 -4.02,-3.58 -5.5,-4.78 -0.19,-0.21 -0.36,-0.36 -0.56,-0.46 -0.19,-0.1 -0.38,-0.27 -0.58,-0.48 -0.27,-0.1 -0.65,-0.3 -1.13,-0.62 -0.46,-0.31 -0.59,-0.46 -0.41,-0.45 -0.45,-0.49 -0.83,-0.79 -1.12,-0.91 -0.09,-0.09 -0.23,-0.21 -0.42,-0.31 -0.2,-0.1 -0.32,-0.19 -0.42,-0.31 -0.57,-0.2 -1.41,-0.78 -2.53,-1.69 -1.12,-0.91 -2.18,-1.73 -3.22,-2.45 -0.73,-0.61 -1.89,-1.45 -3.43,-2.52 -1.54,-1.08 -3.23,-2.26 -5.05,-3.53 -1.84,-1.29 -3.72,-2.54 -5.69,-3.77 -1.99,-1.26 -3.87,-2.43 -5.65,-3.57 -1.04,-0.71 -2.06,-1.37 -3.09,-2.01 -1.02,-0.62 -1.92,-1.14 -2.68,-1.55 -0.85,-0.51 -1.69,-1.05 -2.54,-1.55l-0.15 0.14c-0.09,0.09 -0.19,0.14 -0.29,0.13 -0.11,-0 -0.2,0.05 -0.29,0.13 -0.81,0.74 -1.12,0.58 -0.99,-0.48 0.21,-0.57 -0.07,-0.87 -0.83,-0.9 -1.99,-0.77 -3.07,-1.34 -3.25,-1.72 -0.19,-0.21 -0.37,-0.21 -0.58,-0.02 -0.51,0.47 -0.9,0.34 -1.14,-0.34 -0.17,-0.6 -0.34,-0.79 -0.55,-0.6 -0.4,0.16 -1.1,-0.1 -2.13,-0.81 -0.66,-0.71 -1.04,-1.02 -1.13,-0.93 -0.3,0.28 -0.76,0.08 -1.42,-0.63 -0.45,-0.49 -1.07,-0.68 -1.85,-0.51l-0.14 -0.15c-0.09,-0.09 -0.17,-0.15 -0.28,-0.15 -0.09,0.01 -0.23,-0.1 -0.42,-0.31 -0.18,-0.38 -0.57,-0.73 -1.19,-0.99 -0.62,-0.26 -1.86,-0.82 -3.76,-1.67 -0.09,-0.09 -0.26,-0.17 -0.5,-0.24 -0.23,-0.06 -0.41,-0.14 -0.49,-0.24 -2.16,-0.96 -3.45,-1.64 -3.81,-2.03 -0.19,-0.21 -0.56,-0.31 -1.14,-0.34l0.15 -0.14c-0.7,0.26 -1.12,0.1 -1.28,-0.49 0.01,-0.18 -0.2,-0.41 -0.62,-0.68 -0.42,-0.27 -0.88,-0.47 -1.42,-0.64 -0.54,-0.17 -1.02,-0.31 -1.5,-0.42 -0.48,-0.11 -0.81,-0.09 -1.01,0.1 -0.4,-0.02 -0.94,-0.42 -1.68,-1.22 -0.55,-0.6 -0.92,-0.82 -1.11,-0.64 -0.49,0.45 -0.86,0.24 -1.13,-0.62l-0.85 -0.05c-0.57,-0.02 -1.05,-0.24 -1.42,-0.64 -0.76,-0.03 -1.34,-0.26 -1.7,-0.65 -0.1,-0.29 -0.27,-0.48 -0.55,-0.6 -0.29,-0.12 -0.61,-0.17 -1,-0.19 -0.76,-0.03 -1.48,-0.4 -2.12,-1.1 -0.47,-0.5 -0.75,-0.7 -0.84,-0.61 -0.39,0.36 -1.06,0.24 -2.01,-0.37 -0.28,-0.12 -0.48,-0.22 -0.57,-0.31 -0.09,-0.09 -0.25,-0.15 -0.43,-0.16 -0.39,-0.02 -1.08,-0.39 -2.12,-1.1 -0.76,-0.41 -1.22,-0.54 -1.43,-0.35 -0.39,0.36 -0.73,0.11 -0.98,-0.76l-0.15 0.14c-0.3,0.28 -0.98,0.25 -2.02,-0.08l0.14 0.15c-0.57,-0.2 -0.87,-0.45 -0.91,-0.69 -0.05,-0.24 0.18,-0.41 0.67,-0.48l-0.29 -0.01c-0.08,-0.09 -0.15,-0.13 -0.21,-0.08 -0.06,0.05 -0.13,0.01 -0.21,-0.08 -0.37,-0.21 -0.57,-0.2 -0.57,-0.02l-0.15 0.14c-0.51,0.64 -1.74,0.22 -3.7,-1.31l0.14 0.15 -2.01 -0.37c-0.18,-0.01 -0.43,-0.05 -0.71,-0.17 -0.28,-0.12 -0.44,-0.18 -0.5,-0.24 -0.05,-0.06 -0.21,-0.12 -0.49,-0.23 -0.65,-0.51 -1.75,-0.89 -3.27,-1.15 -1.53,-0.26 -2.34,-0.24 -2.46,0.04l-2 -0.66c-0.49,0.07 -0.73,0.11 -0.73,0.11 0.19,0.21 0.2,0.37 0.05,0.51 -0.15,0.14 -0.41,0.2 -0.8,0.18 -0.49,0.07 -0.85,0.4 -1.05,0.97 -0.2,0.57 -0.77,1.27 -1.67,2.1 -0.82,0.92 -1.61,2.59 -2.37,4.95 -0.76,2.37 -1.2,4.61 -1.29,6.73 -0.04,0.97 0.05,2.01 0.24,3.11 0.19,1.11 0.42,2.01 0.68,2.7 0.6,1.67 1.23,2.89 1.87,3.69 0.63,0.8 1.05,1.11 1.26,0.92 0.51,-0.47 1.08,-0.45 1.73,0.07 0.67,0.32 0.93,0.56 0.83,0.76 -0.1,0.19 -0.34,0.28 -0.73,0.26l0.15 -0.14c-0.39,-0.02 -0.49,0.07 -0.3,0.28 0,0 0.29,0.01 0.86,0.03 0.4,0.02 0.79,0.11 1.22,0.27 0.43,0.16 0.73,0.34 0.91,0.54 -0.76,-0.03 -1.19,-0.05 -1.3,-0.05 -0.11,-0.01 -0.06,0.09 0.13,0.29 0.36,0.39 0.64,0.51 0.85,0.32 0.4,-0.36 0.7,-0.26 0.85,0.32 -0.01,0.18 0.1,0.29 0.28,0.3 0.6,-0.55 0.98,-0.45 1.14,0.34 0.36,0.39 0.61,0.55 0.7,0.46 0.21,-0.19 0.44,-0.23 0.73,-0.11 0.28,0.12 0.42,0.34 0.4,0.74 -0.01,0.18 0.2,0.37 0.63,0.53 0.43,0.16 0.78,0.28 1.07,0.41 0.57,0.2 1.01,0.35 1.35,0.42 0.34,0.07 0.35,0.23 0.05,0.51 0.09,0.09 0.28,0.19 0.56,0.31l1.28 0.49 -0.14 -0.15c0.4,0.02 0.68,0.1 0.93,0.25 0.25,0.15 0.49,0.27 0.78,0.39l0.85 0.32c0.08,0.09 0.33,0.25 0.7,0.46 0.37,0.21 0.71,0.35 0.99,0.47 0.28,0.12 0.73,0.3 1.35,0.56 0.62,0.26 1.11,0.5 1.49,0.71 0.4,0.02 0.71,0.17 0.99,0.47 0.85,0.51 1.36,0.69 1.57,0.5 0.51,-0.47 0.82,-0.31 0.99,0.47 0.36,0.39 0.61,0.55 0.7,0.46 0.51,-0.47 0.82,-0.31 0.99,0.47 0.42,0.45 0.68,0.62 0.77,0.54 0.6,-0.55 0.96,-0.46 1.07,0.26 0.09,0.09 0.13,0.26 0.13,0.44 0.3,-0.28 0.79,-0.31 1.45,-0.08 0.66,0.23 1.03,0.47 1.12,0.77 0.86,0.15 1.87,0.49 3.06,1.06 1.18,0.57 1.85,1.07 2.03,1.46 0.12,-0.29 0.34,-0.35 0.66,-0.19 0.32,0.16 0.63,0.39 0.91,0.69 0.76,0.41 0.87,0.76 0.39,1.03 -0.18,-0.01 -0.02,0.02 0.5,0.09 0.52,0.08 1.07,0.23 1.64,0.43 0.86,0.14 1.6,0.43 2.2,0.89 0.61,0.47 0.58,0.82 -0.12,1.08 0.39,0.01 0.63,0.08 0.71,0.17 0.57,0.02 0.96,-0.05 1.16,-0.24 0.39,-0.36 0.78,-0.47 1.1,-0.31 0.33,0.18 1.07,0.75 2.17,1.75 0.66,0.71 1.25,1.17 1.82,1.37l-0.14 -0.15c0.2,0.03 0.41,0.18 0.63,0.53 0.22,0.35 0.39,0.68 0.47,0.96 0.28,0.3 0.7,0.46 1.28,0.49 0.4,0.01 0.82,0.14 1.29,0.34 0.48,0.22 0.86,0.49 1.14,0.79 0.45,0.49 1.35,0.87 2.7,1.12 1.15,0.05 2.23,0.62 3.25,1.72 0.45,0.49 0.99,0.82 1.62,1 0.61,0.17 1.06,0.21 1.37,0.13 0.29,-0.1 0.32,0.16 0.11,0.73 0.18,0.01 0.51,0.37 0.97,1.05l0.32 -0.85c0.69,-0.64 1.13,-0.69 1.3,-0.09 0.07,0.49 0.74,0.99 1.96,1.52 1.04,0.71 1.39,1.21 1.09,1.49 -0.3,0.28 -0.82,0.2 -1.58,-0.21 -0.67,-0.32 -0.77,-0.27 -0.3,0.13 0.47,0.4 1.03,0.85 1.68,1.37 0.76,0.41 1.38,0.74 1.91,1.01 0.51,0.26 0.82,0.25 0.94,-0.03 0.11,-0.48 0.57,-0.7 1.33,-0.67l0.13 0.44c-0.7,0.26 -0.54,0.77 0.44,1.53 0.98,0.76 3.19,2.23 6.68,4.39 2.9,1.94 5.94,4 9.13,6.15 3.2,2.15 6.3,4.32 9.33,6.52 3.03,2.2 5.92,4.36 8.63,6.51 2.69,2.13 4.98,4.01 6.84,5.62 3.43,2.94 5.61,4.78 6.48,5.54 0.87,0.76 1.42,1.05 1.63,0.86 0.6,-0.55 0.97,-0.45 1.14,0.33 0.35,0.2 1.33,-0.36 2.92,-1.65 0.6,-0.55 1.14,-1.05 1.63,-1.5 0.51,-0.47 0.71,-0.73 0.65,-0.8 -0.35,-0.38 -0.16,-0.89 0.53,-1.53 0.41,-0.38 0.62,-0.95 0.65,-1.71l0.14 0.15c-0.1,-0.29 -0.12,-0.62 -0.1,-1.02 0.02,-0.4 0.12,-0.66 0.32,-0.85l1.2 -1.1c0.09,-0.09 -0.14,-0.26 -0.7,-0.46 -0.77,-0.23 -1.31,-0.32 -1.65,-0.28 -0.34,0.04 0.26,-0.21 1.83,-0.72 0.49,-0.07 0.9,-0.83 1.25,-2.26 0.35,-1.43 0.4,-3.07 0.18,-4.88 0.1,-2.31 0.04,-3.57 -0.13,-3.76l0.17 -0.71zm-101.63 -36.29l-0.29 -0.01c0.09,0.09 0.32,0.16 0.71,0.17l0.29 0.01c0.1,-0.09 0.1,-0.2 0.01,-0.29 -0.4,-0.02 -0.63,0.03 -0.73,0.11zm-17.15 -35.79c0.4,-0.36 0.83,-0.31 1.29,0.2 0.55,0.6 0.73,0.99 0.53,1.18 -0.21,0.19 -0.67,0.06 -1.43,-0.35 -0.47,-0.5 -0.6,-0.84 -0.39,-1.03zm99.42 85.4c-0.65,-0.51 -0.83,-0.9 -0.53,-1.18 0.39,-0.36 0.88,-0.25 1.43,0.35l0.55 0.6c0.08,0.09 0.08,0.2 -0.01,0.29 -0.21,0.19 -0.68,0.17 -1.44,-0.06zm-1.26 -1.06c-0.4,-0.02 -0.71,-0.35 -0.97,-1.05 -0.25,-1.06 -0.19,-1.6 0.21,-1.58 0.09,0.1 0.23,0.25 0.42,0.45 0.19,0.21 0.3,0.45 0.4,0.74 0.53,1 0.52,1.47 -0.06,1.44zm-6.1 -5.2c-1.2,-1.11 -1.66,-1.8 -1.36,-2.08 0.21,-0.19 0.5,-0.18 0.86,0.04 0.37,0.21 0.7,0.46 0.98,0.76 0.92,0.99 1.75,1.71 2.51,2.13 -0.6,0.55 -1.6,0.26 -3,-0.85zm-2.8 -2.14c-0.4,-0.02 -0.72,-0.14 -1,-0.33 -0.28,-0.19 -0.51,-0.4 -0.7,-0.61 0.02,-0.39 0.33,-0.58 0.96,-0.61 0.63,-0.03 1.17,0.21 1.63,0.71 1.02,1.11 0.72,1.38 -0.9,0.83zm-2.14 -1.95c-0.39,0.36 -0.79,0.34 -1.17,-0.07 -0.36,-0.39 -0.35,-0.79 0.05,-1.15l0.59 0.04c0.85,0.33 1.04,0.71 0.53,1.18zm-4.91 -2.93c-0.67,-0.32 -0.78,-0.66 -0.39,-1.03 0.39,-0.36 0.88,-0.25 1.43,0.35 -0.02,0.57 -0.32,0.85 -0.9,0.83l-0.14 -0.15zm-64.17 -64.88c0.04,1.25 -0.4,1.37 -1.32,0.38 -0.64,-0.7 -0.48,-1.12 0.49,-1.28 0.4,0.02 0.62,0.26 0.69,0.75l0.14 0.15zm44.17 52.79c-0.46,-0.31 -0.5,-0.65 -0.1,-1.01 0.21,-0.19 0.45,-0.27 0.73,-0.26 0.29,0.01 0.48,0.25 0.55,0.74 0.09,0.09 -0.01,0.29 -0.31,0.57l-0.86 -0.04zm-1.84 -0.8c-0.39,-0.02 -0.57,-0.17 -0.56,-0.46 0.01,-0.29 0.11,-0.52 0.32,-0.71 0.39,-0.36 0.79,-0.34 1.15,0.05l0.42 0.45c0.08,0.09 0.08,0.2 -0.01,0.29 -0.39,0.36 -0.88,0.43 -1.45,0.23l0.14 0.15zm-4.5 -2.79c-0.36,-0.4 -0.11,-0.73 0.76,-0.98 0.4,0.02 0.72,0.17 0.99,0.47 0.19,0.21 0.25,0.43 0.19,0.66 -0.06,0.23 -0.27,0.35 -0.67,0.34l0.15 -0.14c-0.48,0.27 -0.96,0.16 -1.43,-0.35zm-50.57 -55.23c0.7,-0.26 1.1,0.1 1.26,1.06 0.07,0.49 -0.17,0.72 -0.75,0.69l0.15 -0.14c-0.38,0.18 -0.82,-0.18 -1.25,-1.06 0.11,-0.48 0.35,-0.71 0.75,-0.69l-0.15 0.14zm3.14 1c0.57,0.2 0.61,0.55 0.1,1.02 -0.6,0.55 -1.18,0.71 -1.75,0.51l0.14 0.15c-0.4,-0.02 -0.55,-0.19 -0.48,-0.53 0.07,-0.34 0.18,-0.59 0.39,-0.78 0.39,-0.36 0.89,-0.54 1.47,-0.52l0.14 0.15zm0.94 1.63c0.02,-0.58 0.27,-0.77 0.74,-0.55 0.48,0.22 0.84,0.65 1.1,1.34 -0.03,0.76 -0.38,0.9 -1.03,0.39 -0.55,-0.6 -0.83,-1.01 -0.82,-1.19zm2.43 0.53c0.51,-0.65 0.9,-0.83 1.18,-0.53 0.36,0.39 0.25,0.88 -0.35,1.43l-0.6 0.55c-0.09,0.09 -0.2,0.08 -0.29,-0.01 -0.19,-0.21 -0.22,-0.39 -0.12,-0.58 0.1,-0.19 0.16,-0.46 0.18,-0.86zm3.46 0.14c1.15,0.05 1.22,0.54 0.23,1.46 -1.11,1.02 -1.63,0.94 -1.58,-0.21 0.02,-0.4 0.1,-0.64 0.25,-0.78 0.15,-0.14 0.52,-0.31 1.1,-0.46zm3.49 2.89c0.05,-1.15 0.57,-1.18 1.59,-0.08 0.92,0.99 0.8,1.48 -0.35,1.43 -0.4,-0.01 -0.66,-0.08 -0.86,-0.18 -0.19,-0.1 -0.32,-0.5 -0.38,-1.17zm2.71 0.83c0.69,-0.64 1.32,-0.67 1.88,-0.07 0.64,0.69 0.35,1.17 -0.92,1.41l0.15 -0.14c-0.3,0.28 -0.63,0.41 -1.03,0.39l-0.58 -0.03c-0.36,-0.39 -0.2,-0.93 0.5,-1.57zm7.12 3.15c0.3,-0.28 0.88,-0.29 1.74,-0.07 0.86,0.22 1.51,0.59 1.97,1.09 -0.88,0.25 -1.37,0.43 -1.47,0.52 -0.21,0.37 -0.48,0.27 -0.85,-0.32 -0.19,-0.21 -0.37,-0.11 -0.59,0.26 -0.32,0.86 -0.67,0.78 -1,-0.19l-0.14 -0.15 -0.58 -0.02c-0.95,-0.24 -1.19,-0.57 -0.68,-1.04 0.21,-0.19 0.21,-0.37 0.02,-0.58 -0.19,-0.21 -0.28,-0.12 -0.3,0.28 -0.01,0.4 -0.15,0.56 -0.38,0.49 -0.23,-0.07 -0.44,-0.29 -0.62,-0.68 -0.07,-0.49 -0.21,-0.53 -0.43,-0.16 -0.41,0.76 -0.9,0.83 -1.45,0.23 -0.19,-0.21 -0.29,-0.46 -0.33,-0.81 -0.04,-0.34 0.1,-0.65 0.4,-0.92 0.51,-0.47 1.27,-0.47 2.31,-0.05 1.05,0.42 1.8,1.09 2.23,1.97l0.14 0.15zm9.16 4.6c-0.67,-0.32 -0.99,-0.62 -0.97,-0.9 0.01,-0.29 0.2,-0.43 0.59,-0.41 0.4,0.02 1.08,0.53 2.1,1.53 1.02,1 1.66,1.84 1.92,2.53l-0.3 0.28c-0.45,-0.3 -1.48,-0.85 -3.04,-1.64 -1.56,-0.78 -3.24,-1.56 -5.03,-2.3l0.14 0.15c-1.61,-0.35 -2.13,-0.81 -1.53,-1.36 0.09,-0.09 0.55,-0.12 1.3,-0.09 -0.64,-0.69 -0.34,-0.97 0.9,-0.83 1.06,0.14 1.73,0.42 2.01,0.82 0.27,0.41 0.13,0.71 -0.45,0.87 0.17,0.19 0.4,0.32 0.67,0.42 0.95,0.62 1.67,1.06 2.18,1.32 0.51,0.25 0.36,0.12 -0.49,-0.38zm69.11 57.29c0.41,1.84 -0.14,1.96 -1.61,0.37 -1.02,-1.11 -0.95,-1.52 0.2,-1.29 0.76,0.03 1.2,0.28 1.27,0.77l0.14 0.15zm-2.62 -3.14c0.83,0.9 0.85,1.34 0.09,1.31 -0.39,-0.02 -0.71,-0.35 -0.97,-1.05l0.88 -0.26zm7.96 13.47c-0.4,-0.02 -0.61,-0.55 -0.65,-1.62 0.86,0.14 1.28,0.45 1.26,0.92 -0.02,0.47 -0.21,0.71 -0.61,0.7zm-67.52 -64.3c0.57,0.2 0.64,0.51 0.25,0.88 -0.39,0.36 -0.79,0.35 -1.15,-0.05 -0.09,-0.09 -0.14,-0.19 -0.13,-0.3 0,-0.11 -0.05,-0.2 -0.13,-0.29l-0.14 -0.15c0.39,-0.36 0.85,-0.4 1.3,-0.09zm3.96 1.89c0.09,0.1 0.25,0.16 0.43,0.16 0.67,0.32 0.78,0.67 0.39,1.03 -0.39,0.36 -0.98,0.25 -1.72,-0.36 -0.09,-0.09 -0.21,-0.19 -0.35,-0.23 -0.14,-0.04 -0.27,-0.14 -0.35,-0.23l-0.28 -0.3c0.39,-0.36 0.97,-0.44 1.74,-0.21l0.14 0.15zm16.32 7.45c1.71,0.43 2.57,0.72 2.57,0.83 -0,0.07 -0.73,0.26 -2.19,0.49l0.15 -0.14c-0.97,0.34 -1.89,0.25 -2.73,-0.26 -0.11,-0.11 -0.21,-0.19 -0.35,-0.23 -0.14,-0.08 -0.27,-0.14 -0.35,-0.23 -0.19,-0.21 -0.36,-0.32 -0.56,-0.31 -0.19,-0.21 -0.66,-0.33 -1.43,-0.35 -0.28,-0.12 -0.8,-0.34 -1.56,-0.64 -0.76,-0.34 -1.56,-0.75 -2.4,-1.25 -0.84,-0.54 -1.62,-1.01 -2.32,-1.47 -0.7,-0.46 -1.19,-0.84 -1.47,-1.14 1.27,-0.06 2.19,0.27 2.85,0.98 0.17,0.19 0.63,0.39 1.35,0.56 0.72,0.17 1.4,0.31 2.08,0.45 0.69,-0.08 1.34,-0.05 2.02,0.09 0.66,0.11 1,0.36 0.98,0.76 0.18,0.19 0.37,0.29 0.57,0.31l-0.15 0.14c0.68,-0.28 1.15,0.05 1.41,0.92 0.09,0.09 0.23,0.14 0.42,0.16 0.2,-0.01 0.4,0.05 0.57,0.17 0.19,0.1 0.37,0.14 0.57,0.17zm-0.34 -2.74c0.67,0.32 1,0.64 1.04,0.98 0.04,0.34 -0.24,0.5 -0.81,0.47 -0.58,-0.02 -1.05,-0.42 -1.39,-1.21 -0.35,-0.79 -0.49,-1.17 -0.39,-1.17 0.11,0.01 0.6,0.32 1.55,0.93zm14.09 11.99c0.7,-0.26 1.48,-0.01 2.35,0.75 0.87,0.76 1.08,1.36 0.58,1.83 -0.4,0.36 -0.84,0.11 -1.27,-0.78 -0.35,-0.79 -0.88,-0.96 -1.57,-0.5 -0.67,0.06 -1.15,-0.23 -1.4,-0.92 -0.36,-0.39 -0.61,-0.55 -0.7,-0.46 -0.4,0.36 -0.87,0.07 -1.41,-0.92 -0.36,-0.39 -0.61,-0.55 -0.7,-0.46 -0.3,0.28 -0.78,0.06 -1.42,-0.63 0,0 -0.19,-0.21 -0.55,-0.6 -0.39,0.36 -0.79,0.35 -1.15,-0.05 -0.47,-0.51 -0.83,-0.86 -1.11,-1.06 -0.28,-0.19 -0.74,-0.46 -1.41,-0.78 -3.12,-1.39 -4.09,-2.44 -2.9,-3.15 0.78,-0.17 1.39,0 1.86,0.51 0.47,0.51 0.78,0.66 0.99,0.48 0.51,-0.47 0.88,-0.25 1.13,0.62 0.29,0.12 0.62,0.26 0.99,0.47 0.28,0.12 0.6,0.31 0.99,0.62 0.38,0.3 0.7,0.5 0.98,0.62 0.95,0.62 1.6,1.02 1.97,1.24l1.13 0.62c0.19,0.21 0.65,0.51 1.41,0.92l-0.14 -0.15c1.15,0.23 1.45,0.78 0.94,1.63l0.15 -0.14c-0.01,0.18 0.1,0.29 0.28,0.3zm12.33 8.34c0.47,0.51 0.89,0.85 1.26,1.06 1.5,1.22 2.58,2.24 3.27,3.1 0.69,0.86 0.74,1.15 0.18,0.95 -0.58,-0.02 -1.93,-0.89 -4.08,-2.62l-4.07 -2.91c-0.19,-0.21 -0.31,-0.3 -0.42,-0.31 -0.11,-0 -0.2,-0.06 -0.28,-0.15 -0.64,-0.7 -1.25,-1.17 -1.82,-1.38 -0.19,-0.21 -0.21,-0.64 -0.09,-1.31 0.42,-0.56 0.7,-0.78 0.9,-0.69 0.19,0.1 0.64,0.55 1.39,1.36 0.18,0.39 0.53,0.72 1.05,0.98 0.51,0.26 0.92,0.44 1.2,0.56 1.36,-0.14 1.67,0.12 0.98,0.76l0.55 0.6zm10.19 8.36c0.37,0.22 0.77,0.5 1.19,0.84 0.42,0.34 0.66,0.68 0.75,0.97 0.43,0.89 0.56,1.29 0.31,1.24 -0.23,-0.06 -0.85,-0.47 -1.86,-1.2l-1.92 -1.56c-0.19,-0.21 -0.43,-0.43 -0.76,-0.68 -0.33,-0.25 -0.58,-0.47 -0.77,-0.68 -0.56,-0.42 -1.03,-0.85 -1.39,-1.36 -0.36,-0.5 -0.45,-0.83 -0.27,-1 0.36,-0.33 1.04,0.04 2.06,1.15 0.83,0.9 1.7,1.66 2.65,2.28zm4.93 3.78c0.76,0.41 1.6,1.13 2.52,2.13 0.91,0.99 1.85,2.04 2.76,3.14 0.91,1.1 1.63,2.11 2.11,3.05 0.48,0.94 0.64,1.49 0.43,1.68 -0.1,0.09 -0.67,-0.32 -1.68,-1.23 -1.01,-0.91 -2.23,-2.11 -3.61,-3.61 -2.67,-2.71 -4.22,-4.54 -4.61,-5.46 -0.4,-0.92 0.31,-0.84 2.08,0.3z"/>
  </g>
 </g>
</svg>
